<?xml version="1.0" encoding="UTF-8"?>
<svg width="30px" height="14px" viewBox="0 0 30 14" version="1.1" xmlns="http://www.w3.org/2000/svg" xmlns:xlink="http://www.w3.org/1999/xlink">
    <title>TIME 2</title>
    <g id="-iOS" stroke="none" stroke-width="1" fill="none" fill-rule="evenodd">
        <g id="투표-결과---리스트-보기" transform="translate(-138.000000, -778.000000)">
            <g id="List" transform="translate(20.000000, 195.000000)">
                <g id="Group-Copy-37" transform="translate(0.000000, 572.000000)">
                    <g id="TIME-2" transform="translate(118.000000, 11.000000)">
                        <rect id="Rectangle" stroke="#000000" fill="#FFFFFF" x="0.5" y="0.5" width="29" height="13"></rect>
                        <g id="TIME" transform="translate(4.365000, 4.000000)" fill="#000000" fill-rule="nonzero">
                            <polygon id="Path" points="0 0 5.15 0 5.15 1.32 3.26 1.32 3.26 7 1.88 7 1.88 1.32 0 1.32"></polygon>
                            <polygon id="Path" points="5.92 7 5.92 0 7.3 0 7.3 7"></polygon>
                            <polygon id="Path" points="14.03 0 15.45 0 15.45 7 14.08 7 14.08 2.46 12.11 5.71 11.95 5.71 9.98 2.47 9.98 7 8.6 7 8.6 0 10.02 0 12.03 3.31"></polygon>
                            <polygon id="Path" points="18.13 4.11 18.13 5.68 21.08 5.68 21.08 7 16.75 7 16.75 0 21.03 0 21.03 1.32 18.13 1.32 18.13 2.81 20.78 2.81 20.78 4.11"></polygon>
                        </g>
                    </g>
                </g>
            </g>
        </g>
    </g>
</svg>