<svg width="14" height="14" viewBox="0 0 14 14" xmlns="http://www.w3.org/2000/svg">
    <g fill="none" fill-rule="evenodd">
        <circle fill-opacity=".4" fill="#000" cx="7" cy="7" r="7"/>
        <path d="M7.448 7.97c0-.82 1.568-1.231 1.568-2.631 0-1.204-1.036-1.839-2.09-1.839-.99 0-1.877.504-2.26 1.447l1.102.634c.196-.504.56-.83 1.11-.83.542 0 .85.252.85.681 0 .924-1.568 1.307-1.568 2.539h1.288zm-.644 2.315A.793.793 0 1 0 6.805 8.7a.793.793 0 0 0-.001 1.585z" fill="#FFF" fill-rule="nonzero"/>
    </g>
</svg>
