<svg width="163" height="108" viewBox="0 0 163 108" xmlns="http://www.w3.org/2000/svg">
    <g transform="translate(1 1)" fill="none" fill-rule="evenodd">
        <rect fill="#E6EAED" x="8" y="8" width="145" height="90" rx="7"/>
        <path stroke="#000" opacity=".6" d="M8 0H0v8M8 106H0v-8M153 0h8v8M153 106h8v-8"/>
        <rect fill="#CACFD5" x="98" y="18" width="45" height="50" rx="3"/>
        <path d="M139.188 65.037c0-10.494-8.506-19-19-19-10.493 0-19 8.506-19 19h38z" fill="#FFF"/>
        <circle fill="#FFF" cx="120.188" cy="33.794" r="10.035"/>
        <rect fill="#FFF" x="20" y="18" width="60" height="10" rx="5"/>
        <rect fill="#FFF" x="19.512" y="36.237" width="45" height="8" rx="4"/>
        <rect fill="#FFF" x="19.512" y="49.237" width="45" height="8" rx="4"/>
        <rect fill="#FFF" x="46" y="78" width="70" height="10" rx="5"/>
    </g>
</svg>
