<svg width="335" height="208" viewBox="0 0 335 208" xmlns="http://www.w3.org/2000/svg" xmlns:xlink="http://www.w3.org/1999/xlink">
    <defs>
        <linearGradient x1="88.73%" y1="74.039%" x2="11.27%" y2="25.961%" id="a3q3qcderb">
            <stop stop-color="#101213" offset="0%"/>
            <stop stop-color="#272A29" offset="100%"/>
        </linearGradient>
        <linearGradient x1="50%" y1="0%" x2="50%" y2="100%" id="iwggrh8eld">
            <stop stop-color="#272A29" offset="0%"/>
            <stop stop-color="#FFF" offset="100%"/>
        </linearGradient>
        <linearGradient x1="50%" y1="0%" x2="50%" y2="100%" id="cqkcsc7jif">
            <stop stop-color="#E1E1E1" offset="0%"/>
            <stop stop-color="#B3B3B3" offset="100%"/>
        </linearGradient>
        <path d="M314.066 207.832H20.536C9.194 207.832 0 198.638 0 187.296V20.536C0 9.194 9.194 0 20.536 0h293.53C325.407 0 334.6 9.194 334.6 20.536v166.76c0 11.342-9.194 20.536-20.535 20.536" id="ild5vsh5sa"/>
        <path d="M33.757 27.644H4.904A4.91 4.91 0 0 1 .002 22.74V4.91A4.91 4.91 0 0 1 4.904.002h28.853a4.91 4.91 0 0 1 4.903 4.905V22.74a4.91 4.91 0 0 1-4.903 4.905" id="olnj2nywye"/>
    </defs>
    <g fill="none" fill-rule="evenodd">
        <mask id="ckpj9bdx5c" fill="#fff">
            <use xlink:href="#ild5vsh5sa"/>
        </mask>
        <path d="M20.361 207.916c-11.355 0-20.56-9.201-20.56-20.553V20.47C-.2 9.118 9.006-.084 20.36-.084h293.88c11.355 0 20.56 9.202 20.56 20.553v166.894c0 11.352-9.205 20.553-20.56 20.553H20.36z" fill="url(#a3q3qcderb)" mask="url(#ckpj9bdx5c)"/>
        <text opacity=".6" mask="url(#ckpj9bdx5c)" font-family="Gilroy-SemiBold, Gilroy" font-size="8" font-weight="500" fill="#FFF">
                    <tspan x="14.801" y="176.916">Lupick pay ISSUED BY Lupick Co., Ltd. </tspan>
                    <tspan x="14.801" y="188.916">SEOUL, REPUBLIC OF KOREA. (c) ALL RIGHTS RESERVED.</tspan>
                </text>
        <g mask="url(#ckpj9bdx5c)" stroke="url(#iwggrh8eld)">
            <g transform="translate(285.244 11.36)">
                <circle stroke-width="2" fill="#FFF" transform="rotate(-45 23.556 15.556)" cx="23.556" cy="15.556" r="10"/>
                <circle fill="url(#iwggrh8eld)" transform="rotate(-45 15.556 15.556)" cx="15.556" cy="15.556" r="10.5"/>
            </g>
        </g>
        <text mask="url(#ckpj9bdx5c)" font-family="NanumBarunGothic" font-size="20" fill="#FFF">
                    <tspan x="177.801" y="86.916">한 번의 등록으로,</tspan>
                    <tspan x="177.801" y="114.916">3초만에 결제하기</tspan>
                </text>
        <path d="M47.568 20.358c3.47 0 6.317 2.949 6.317 6.769 0 3.82-2.848 6.768-6.317 6.768-1.89 0-3.263-.692-4.195-1.871v6.64h-3.34V20.717h3.34v1.513c.932-1.18 2.304-1.872 4.195-1.872zm-18.108 0v7.563c0 1.767 1.042 2.677 2.517 2.677 1.602 0 2.797-.962 2.797-3.223v-7.017h3.28v12.994h-3.28v-1.455c-.763 1.17-2.085 1.82-3.789 1.82-2.695 0-4.805-1.924-4.805-5.38v-7.979h3.28zm37.52 0c2.475 0 4.62 1.316 5.655 3.264l-2.802 1.644c-.505-1.037-1.59-1.695-2.877-1.695-1.944 0-3.383 1.442-3.383 3.466 0 1.999 1.439 3.441 3.383 3.441 1.312 0 2.398-.632 2.903-1.67l2.827 1.62c-1.086 1.973-3.231 3.288-5.705 3.288-3.837 0-6.664-2.909-6.664-6.679 0-3.77 2.827-6.679 6.664-6.679zm-48.64-4.947v14.452h6.85v3.359H14.8V15.41h3.54zm40.12 5.081v12.73h-3.212v-12.73h3.211zm18.538-5.081v10.686l4.43-5.597h3.967l-5.177 6.284 5.331 6.438h-3.863l-4.688-5.776v5.776h-3.323V15.41h3.323zm-30.052 8.1c-2.045 0-3.573 1.462-3.573 3.616 0 2.153 1.528 3.615 3.573 3.615 2.072 0 3.6-1.462 3.6-3.615 0-2.154-1.528-3.615-3.6-3.615zm9.895-8.595c1.096 0 1.992.942 1.992 2.037s-.896 2.011-1.992 2.011c-1.07 0-1.966-.916-1.966-2.011 0-1.095.896-2.037 1.966-2.037zm63.518 6 4.476 9.976 3.857-9.976h1.667l-5.096 13c-.904 2.286-2.666 3.834-4.81 3.667v-1.476c1.548.166 2.62-.929 3.263-2.476l.31-.739-5.334-11.976h1.667zm-24.143-.285c3.357 0 6.143 2.714 6.143 6.238 0 3.523-2.786 6.238-6.143 6.238-2.12 0-3.81-1.024-4.81-2.62v7.096h-1.571V20.916h1.571v2.334c1-1.596 2.69-2.62 4.81-2.62zm38.585 9.128v3.463h-3.463v-3.463h3.463zm-24.395-9.128c2.12 0 3.81 1.023 4.81 2.619v-2.334h1.571v11.905h-1.571v-2.333c-1 1.595-2.69 2.619-4.81 2.619-3.357 0-6.143-2.715-6.143-6.238 0-3.524 2.786-6.238 6.143-6.238zm-14.31 1.523c-2.642 0-4.69 2.072-4.69 4.715 0 2.642 2.048 4.714 4.69 4.714 2.644 0 4.691-2.072 4.691-4.714 0-2.643-2.047-4.715-4.69-4.715zm14.43 0c-2.644 0-4.691 2.072-4.691 4.715 0 2.642 2.047 4.714 4.69 4.714 2.643 0 4.69-2.072 4.69-4.714 0-2.643-2.047-4.715-4.69-4.715z" fill="#FFF" mask="url(#ckpj9bdx5c)"/>
        <g mask="url(#ckpj9bdx5c)">
            <g transform="translate(30.4 80.515)">
                <mask id="m45t1xmgxg" fill="#fff">
                    <use xlink:href="#olnj2nywye"/>
                </mask>
                <path d="M33.757 27.644H4.904A4.91 4.91 0 0 1 .002 22.74V4.91A4.91 4.91 0 0 1 4.904.002h28.853a4.91 4.91 0 0 1 4.903 4.905V22.74a4.91 4.91 0 0 1-4.903 4.905" fill="url(#cqkcsc7jif)" mask="url(#m45t1xmgxg)"/>
            </g>
            <path d="M35.345 108.149c-2.708 0-4.913-2.198-4.913-4.898V85.444c0-2.7 2.205-4.898 4.913-4.898h28.912c2.708 0 4.912 2.198 4.912 4.898v17.807c0 2.7-2.204 4.898-4.912 4.898H35.345zm34.456-4.898V85.444c0-3.048-2.488-5.528-5.544-5.528H35.345c-3.057 0-5.544 2.48-5.544 5.528v17.807c0 3.047 2.487 5.528 5.544 5.528h28.912c3.056 0 5.544-2.48 5.544-5.528z" fill="#4D4D4D"/>
            <path fill="#4D4D4D" d="M30.16 99.317h39.281v-.598H30.16zM53.274 89.856H69.44v-.598H53.274z"/>
            <path fill="#4D4D4D" d="M53.274 99.078h.599v-9.461h-.6zM49.441 99.089l.634-.011c.001.029.048 2.767.053 3.745a604.3 604.3 0 0 1 5.66 5.511l-.447.445c-2.503-2.48-5.718-5.566-5.75-5.597l-.097-.093v-.133c0-.825-.052-3.837-.053-3.867"/>
            <path d="M43.693 108.336a131.63 131.63 0 0 1 5.925-5.665l.422.473a131.06 131.06 0 0 0-5.892 5.635l-.455-.443M45.849 98.838h.598v-9.221h-.598z" fill="#4D4D4D"/>
            <path fill="#4D4D4D" d="M30.16 89.856v-.633H49.5v-3.3l6.086-6.007.442.452-5.897 5.82v3.668H30.16"/>
            <path fill="#4D4D4D" d="m43.573 80.487.442-.451 6.025 5.896-.442.451-6.025-5.896"/>
        </g>
    </g>
</svg>
