<svg xmlns="http://www.w3.org/2000/svg" width="58" height="13" viewBox="0 0 58 13">
    <g fill="none" fill-rule="evenodd">
        <g fill="#DA3132">
            <g>
                <g>
                    <g>
                        <path d="M38.534 0c1.885 0 3.16.503 4.201 1.275.288.215.54.61.54 1.095 0 .754-.611 1.347-1.366 1.347-.377 0-.628-.144-.826-.27-.771-.574-1.58-.897-2.567-.897-2.119 0-3.646 1.76-3.646 3.914V6.5c0 2.155 1.491 3.95 3.646 3.95 1.167 0 1.94-.359 2.73-.987.215-.18.502-.306.825-.306.7 0 1.293.575 1.293 1.275 0 .431-.216.773-.467.988-1.131.987-2.46 1.58-4.471 1.58-3.7 0-6.446-2.855-6.446-6.464V6.5c0-3.573 2.693-6.5 6.554-6.5zm12.248 0c3.879 0 6.662 2.89 6.662 6.464V6.5c0 3.573-2.819 6.5-6.698 6.5-3.878 0-6.661-2.891-6.661-6.464V6.5c0-3.573 2.819-6.5 6.697-6.5zM5.135.108c3 0 4.813 1.777 4.813 4.345v.036c0 2.909-2.263 4.417-5.082 4.417h-2.1v2.603c0 .773-.611 1.383-1.383 1.383S0 12.282 0 11.51V1.49C0 .718.61.108 1.383.108h3.752zm10.531-.09c.754 0 1.293.413 1.598 1.095l4.381 9.894c.09.197.144.377.144.556 0 .737-.575 1.33-1.31 1.33-.647 0-1.078-.378-1.33-.952l-.844-1.976h-5.53l-.88 2.065c-.233.539-.7.862-1.275.862-.718 0-1.275-.574-1.275-1.293 0-.197.072-.395.162-.592l4.381-9.894c.305-.682.862-1.095 1.616-1.095h.162zM30.549.09c.844 0 1.347.592 1.347 1.346 0 .377-.18.719-.36.97l-4.058 5.477v3.626c0 .773-.61 1.383-1.382 1.383-.772 0-1.383-.61-1.383-1.383V7.936l-4.057-5.512c-.198-.27-.342-.593-.342-.988 0-.736.61-1.328 1.383-1.328.628 0 1.023.34 1.364.843l3.053 4.4L29.22.915c.342-.502.755-.825 1.33-.825zm20.197 2.46c-2.226 0-3.77 1.76-3.77 3.914V6.5c0 2.155 1.58 3.95 3.806 3.95 2.227 0 3.771-1.76 3.771-3.914V6.5c0-2.155-1.58-3.95-3.807-3.95zm-35.206.825l-1.742 4.148h3.484L15.54 3.375zM4.902 2.603H2.766v3.843h2.19c1.383 0 2.19-.826 2.19-1.903v-.036c0-1.24-.861-1.904-2.244-1.904z" transform="translate(-233 -1407) translate(20 1207) translate(165 181) translate(48 19)"/>
                    </g>
                </g>
            </g>
        </g>
    </g>
</svg>
