<?xml version="1.0" encoding="UTF-8"?>
<svg width="142px" height="50px" viewBox="0 0 142 50" version="1.1" xmlns="http://www.w3.org/2000/svg" xmlns:xlink="http://www.w3.org/1999/xlink">
    <title>Group 9</title>
    <g id="Page" stroke="none" stroke-width="1" fill="none" fill-rule="evenodd">
        <g id="홈---Main-3" transform="translate(-363.000000, -434.000000)">
            <g id="Group-9" transform="translate(363.000000, 434.000000)">
                <rect id="Rectangle" fill="#000000" x="0" y="0" width="142" height="50" rx="25"></rect>
                <text id="등록완료" font-size="18" font-weight="normal" fill="#FFEC00">
                    <tspan x="59.72" y="30">등록완료</tspan>
                </text>
                <g id="Group-5" transform="translate(20.000000, 9.000000)">
                    <g id="Group-6">
                        <g id="Group-3">
                            <path d="M0,0 L32,0 L32,32 L0,32 Z" id="Rectangle"></path>
                        </g>
                        <g id="Group-2" transform="translate(6.250000, 4.500000)">
                            <rect id="Rectangle" x="0" y="0" width="19.4615385" height="23"></rect>
                            <g id="Group" transform="translate(0.264620, 0.000000)">
                                <path d="M9.46614893,0.75 C11.6190853,0.75 13.5682034,1.6226499 14.9790874,3.0335339 C16.3899714,4.4444179 17.2626213,6.393536 17.2626213,8.5464724 L17.2626213,14.4386805 L18.17522,18.3753027 L11.7247661,18.7153831 C11.9359258,19.8865009 11.6950498,20.865296 11.1462897,21.4988765 C10.7294627,21.9801314 10.1385856,22.25 9.48538007,22.25 C8.83750757,22.25 8.25096911,21.9873978 7.82639877,21.5628274 C7.25650923,20.9929379 6.97843738,20.1312307 7.23555392,19.2210764 L1.04548454,18.7107411 L1.66967652,14.4362794 L1.66967652,8.5464724 C1.66967652,6.393536 2.54232642,4.4444179 3.95321042,3.0335339 C5.36409442,1.6226499 7.31321252,0.75 9.46614893,0.75 Z" id="Path" stroke="#FFEC00" stroke-width="1.5"></path>
                                <rect id="Rectangle" fill="#FFEC00" x="6.92768776" y="17.96" width="7.07692308" height="1.5"></rect>
                            </g>
                        </g>
                    </g>
                    <path d="M13,15.4090402 L14.8432,17.2780336 C15.2310015,17.6712619 15.8641511,17.6756612 16.2573794,17.2878597 C16.2606775,17.2846071 16.263953,17.2813317 16.2672056,17.2780336 L19.5,14 L19.5,14" id="Path-4" stroke="#FFEC00" stroke-width="1.5" stroke-linecap="round"></path>
                </g>
            </g>
        </g>
    </g>
</svg>