<?xml version="1.0" encoding="UTF-8"?>
<svg width="142px" height="50px" viewBox="0 0 142 50" version="1.1" xmlns="http://www.w3.org/2000/svg" xmlns:xlink="http://www.w3.org/1999/xlink">
    <title>Group 9</title>
    <g id="Page" stroke="none" stroke-width="1" fill="none" fill-rule="evenodd">
        <g id="홈---Main-2" transform="translate(-363.000000, -434.000000)">
            <g id="Group-9" transform="translate(363.000000, 434.000000)">
                <rect id="Rectangle" fill="#000000" x="0" y="0" width="142" height="50" rx="25"></rect>
                <text id="알림신청" font-size="18" font-weight="normal" fill="#FFFFFF">
                    <tspan x="59.72" y="30">알림신청</tspan>
                </text>
                <g id="Group-5" transform="translate(20.000000, 9.000000)">
                    <g id="Group-6">
                        <g id="Group-3">
                            <path d="M0,0 L32,0 L32,32 L0,32 Z" id="Rectangle"></path>
                        </g>
                        <g id="Group-2" transform="translate(6.250000, 4.500000)">
                            <rect id="Rectangle" x="0" y="0" width="19.4615385" height="23"></rect>
                            <g id="Group" transform="translate(0.264620, 0.000000)">
                                <path d="M9.46614893,0.75 C11.6190853,0.75 13.5682034,1.6226499 14.9790874,3.0335339 C16.3899714,4.4444179 17.2626213,6.393536 17.2626213,8.5464724 L17.2626213,14.4386805 L18.17522,18.3753027 L11.7247661,18.7153831 C11.9359258,19.8865009 11.6950498,20.865296 11.1462897,21.4988765 C10.7294627,21.9801314 10.1385856,22.25 9.48538007,22.25 C8.83750757,22.25 8.25096911,21.9873978 7.82639877,21.5628274 C7.25650923,20.9929379 6.97843738,20.1312307 7.23555392,19.2210764 L1.04548454,18.7107411 L1.66967652,14.4362794 L1.66967652,8.5464724 C1.66967652,6.393536 2.54232642,4.4444179 3.95321042,3.0335339 C5.36409442,1.6226499 7.31321252,0.75 9.46614893,0.75 Z" id="Path" stroke="#FFFFFF" stroke-width="1.5"></path>
                                <rect id="Rectangle" fill="#FFFFFF" x="6.92768776" y="17.96" width="7.07692308" height="1.5"></rect>
                            </g>
                        </g>
                    </g>
                    <g id="Group-8" transform="translate(26.290000, 11.445880)" fill="#FFFFFF" fill-rule="nonzero">
                        <path d="M2.4525374,0.147108144 C2.75963554,-0.0905622282 3.20125767,-0.0342799036 3.43892805,0.272818235 C4.99128306,2.27864391 4.99128306,5.47382696 3.43892805,7.47965264 C3.20125767,7.78675077 2.75963554,7.8430331 2.4525374,7.60536273 C2.14543926,7.36769235 2.08915694,6.92607022 2.32682731,6.61897208 C3.48698331,5.11991377 3.48698331,2.6325571 2.32682731,1.13349879 C2.08915694,0.826400651 2.14543926,0.384778517 2.4525374,0.147108144 Z" id="Path"></path>
                        <path d="M0.272818235,1.41633891 C0.579916373,1.17866854 1.02153851,1.23495087 1.25920888,1.542049 C2.26906169,2.84689788 2.26906169,4.90557299 1.25920888,6.21042187 C1.02153851,6.51752 0.579916373,6.57380233 0.272818235,6.33613196 C-0.0342799036,6.09846158 -0.0905622282,5.65683945 0.147108144,5.34974131 C0.764761939,4.5516598 0.764761939,3.20081107 0.147108144,2.40272956 C-0.0905622282,2.09563142 -0.0342799036,1.65400929 0.272818235,1.41633891 Z" id="Path-Copy"></path>
                    </g>
                    <g id="Group-10" transform="translate(0.710000, 11.445880)" fill="#FFFFFF" fill-rule="nonzero">
                        <path d="M1.16426626,0.272818235 C1.40193664,-0.0342799036 1.84355877,-0.0905622282 2.15065691,0.147108144 C2.45775505,0.384778517 2.51403737,0.826400651 2.276367,1.13349879 C1.116211,2.6325571 1.116211,5.11991377 2.276367,6.61897208 C2.51403737,6.92607022 2.45775505,7.36769235 2.15065691,7.60536273 C1.84355877,7.8430331 1.40193664,7.78675077 1.16426626,7.47965264 C-0.388088754,5.47382696 -0.388088754,2.27864391 1.16426626,0.272818235 Z" id="Path"></path>
                        <path d="M3.74051029,1.542049 C3.97818066,1.23495087 4.41980279,1.17866854 4.72690093,1.41633891 C5.03399907,1.65400929 5.0902814,2.09563142 4.85261102,2.40272956 C4.23495723,3.20081107 4.23495723,4.5516598 4.85261102,5.34974131 C5.0902814,5.65683945 5.03399907,6.09846158 4.72690093,6.33613196 C4.41980279,6.57380233 3.97818066,6.51752 3.74051029,6.21042187 C2.73065747,4.90557299 2.73065747,2.84689788 3.74051029,1.542049 Z" id="Path-Copy"></path>
                    </g>
                </g>
            </g>
        </g>
    </g>
</svg>