<svg width="80" height="80" viewBox="0 0 80 80" xmlns="http://www.w3.org/2000/svg">
    <defs>
        <filter id="08tphthr1a">
            <feColorMatrix in="SourceGraphic" values="0 0 0 0 1.000000 0 0 0 0 1.000000 0 0 0 0 1.000000 0 0 0 1.000000 0"/>
        </filter>
        <filter id="tlbirx717b">
            <feColorMatrix in="SourceGraphic" values="0 0 0 0 1.000000 0 0 0 0 1.000000 0 0 0 0 1.000000 0 0 0 1.000000 0"/>
        </filter>
    </defs>
    <g fill="none" fill-rule="evenodd">
        <g filter="url(#08tphthr1a)">
            <path d="M24 13h32v32H24V13z"/>
            <path d="M30.25 17.5h19.462v23H30.25z"/>
            <path d="M39.98 18.25c2.154 0 4.103.873 5.514 2.284a7.772 7.772 0 0 1 2.283 5.512v5.893l.913 3.936-6.45.34c.21 1.172-.03 2.15-.58 2.784a2.167 2.167 0 0 1-1.66.751 2.339 2.339 0 0 1-1.659-.687 2.36 2.36 0 0 1-.59-2.342l-6.19-.51.623-4.275v-5.89c0-2.152.873-4.102 2.284-5.512a7.772 7.772 0 0 1 5.513-2.284z" stroke="#000" stroke-width="1.5"/>
            <path fill="#000" d="M37.443 35.46h7.077v1.5h-7.077z"/>
            <g fill="#000" fill-rule="nonzero">
                <path d="M51.743 24.593a.703.703 0 0 1 .986.126c1.552 2.006 1.552 5.2 0 7.207a.703.703 0 0 1-1.112-.861c1.16-1.5 1.16-3.987 0-5.486a.703.703 0 0 1 .126-.986z"/>
                <path d="M49.563 25.862a.703.703 0 0 1 .986.126c1.01 1.305 1.01 3.363 0 4.668a.703.703 0 0 1-1.112-.86c.618-.798.618-2.15 0-2.947a.703.703 0 0 1 .126-.987z"/>
            </g>
            <g fill="#000" fill-rule="nonzero">
                <path d="M26.874 24.719a.703.703 0 0 1 1.112.86c-1.16 1.5-1.16 3.987 0 5.486a.703.703 0 0 1-1.112.86c-1.552-2.005-1.552-5.2 0-7.206zM29.45 25.988a.703.703 0 0 1 1.113.86c-.618.799-.618 2.15 0 2.948a.703.703 0 1 1-1.112.86c-1.01-1.305-1.01-3.363 0-4.668z"/>
            </g>
        </g>
        <g>
            <circle fill="#000" cx="40" cy="40" r="40"/>
            <text font-family="NanumBarunGothicOTFBold, NanumBarunGothicOTF" font-size="12" font-weight="bold" fill="#FFF">
                                <tspan x="19.092" y="57">알림신청</tspan>
                            </text>
        </g>
        <g filter="url(#tlbirx717b)">
            <path d="M24 13h32v32H24V13z"/>
            <path d="M30.25 17.5h19.462v23H30.25z"/>
            <path d="M39.98 18.25c2.154 0 4.103.873 5.514 2.284a7.772 7.772 0 0 1 2.283 5.512v5.893l.913 3.936-6.45.34c.21 1.172-.03 2.15-.58 2.784a2.167 2.167 0 0 1-1.66.751 2.339 2.339 0 0 1-1.659-.687 2.36 2.36 0 0 1-.59-2.342l-6.19-.51.623-4.275v-5.89c0-2.152.873-4.102 2.284-5.512a7.772 7.772 0 0 1 5.513-2.284z" stroke="#000" stroke-width="1.5"/>
            <path fill="#000" d="M37.443 35.46h7.077v1.5h-7.077z"/>
            <g fill="#000" fill-rule="nonzero">
                <path d="M52.743 24.593a.703.703 0 0 1 .986.126c1.552 2.006 1.552 5.2 0 7.207a.703.703 0 0 1-1.112-.861c1.16-1.5 1.16-3.987 0-5.486a.703.703 0 0 1 .126-.986z"/>
                <path d="M50.563 25.862a.703.703 0 0 1 .986.126c1.01 1.305 1.01 3.363 0 4.668a.703.703 0 0 1-1.112-.86c.618-.798.618-2.15 0-2.947a.703.703 0 0 1 .126-.987z"/>
            </g>
            <g fill="#000" fill-rule="nonzero">
                <path d="M25.874 24.719a.703.703 0 0 1 1.112.86c-1.16 1.5-1.16 3.987 0 5.486a.703.703 0 0 1-1.112.86c-1.552-2.005-1.552-5.2 0-7.206zM28.45 25.988a.703.703 0 0 1 1.113.86c-.618.799-.618 2.15 0 2.948a.703.703 0 1 1-1.112.86c-1.01-1.305-1.01-3.363 0-4.668z"/>
            </g>
        </g>
    </g>
</svg>
