<svg width="30" height="30" viewBox="0 0 30 30" xmlns="http://www.w3.org/2000/svg">
    <g fill="none" fill-rule="evenodd">
        <path d="M15 0c8.284 0 15 6.716 15 15 0 8.284-6.716 15-15 15-8.284 0-15-6.716-15-15C0 6.716 6.716 0 15 0z" fill="#FAE300" fill-rule="nonzero"/>
        <path d="M0 0h30v30H0z"/>
        <path d="M15.333 9.333c-3.313 0-6 2.12-6 4.733 0 1.702 1.139 3.193 2.847 4.027-.126.467-.455 1.694-.52 1.956-.082.326.119.321.25.233.104-.068 1.645-1.113 2.31-1.564.36.053.733.081 1.113.081 3.314 0 6-2.12 6-4.733 0-2.614-2.686-4.733-6-4.733" fill="#391B1B"/>
    </g>
</svg>
