<svg width="32" height="32" viewBox="0 0 32 32" xmlns="http://www.w3.org/2000/svg">
    <g fill="none" fill-rule="evenodd">
        <path d="M0 0h32v32H0V0z"/>
        <path d="M6.25 4.5h19.462v23H6.25z"/>
        <path d="M15.98 5.25c2.154 0 4.103.873 5.514 2.284a7.772 7.772 0 0 1 2.283 5.512v5.893l.913 3.936-6.45.34c.21 1.172-.03 2.15-.58 2.784a2.167 2.167 0 0 1-1.66.751 2.339 2.339 0 0 1-1.659-.687 2.36 2.36 0 0 1-.59-2.342l-6.19-.51.623-4.275v-5.89c0-2.152.873-4.102 2.284-5.512A7.772 7.772 0 0 1 15.98 5.25z" stroke="#FFEC00" stroke-width="1.5"/>
        <path fill="#FFEC00" d="M13.443 22.46h7.077v1.5h-7.077z"/>
        <path d="m13 15.409 1.843 1.869a1 1 0 0 0 1.424 0L19.5 14h0" stroke="#FFEC00" stroke-width="1.5" stroke-linecap="round"/>
    </g>
</svg>
