<?xml version="1.0" encoding="UTF-8"?>
<svg width="26px" height="27px" viewBox="0 0 26 27" version="1.1" xmlns="http://www.w3.org/2000/svg" xmlns:xlink="http://www.w3.org/1999/xlink">
    <title>point</title>
    <g id="-iOS" stroke="none" stroke-width="1" fill="none" fill-rule="evenodd">
        <g id="마이---default" transform="translate(-124.000000, -234.000000)">
            <g id="Group-9" transform="translate(124.500000, 235.000000)">
                <g id="Group-3" fill="#FFEC00" stroke="#000000">
                    <path d="M12.4995236,25 C5.60858961,25 0,19.3921494 0,12.5 C0,5.60785061 5.60858961,0 12.4995236,0 C19.3914104,0 25,5.60785061 25,12.5 C25,19.3921494 19.3914104,25 12.4995236,25" id="Fill-1"></path>
                </g>
                <path d="M16.0333042,11.0287051 C16.0333042,9.98315133 15.2588993,9.21185647 14.1975322,9.21185647 L11.9834025,9.21185647 L11.9834025,12.8455538 L14.1975322,12.8455538 C15.2588993,12.8455538 16.0333042,12.0574103 16.0333042,11.0287051 M18.5,11.0287051 C18.5,13.274259 16.6268836,15.0574103 14.1975322,15.0574103 L11.9834025,15.0574103 L11.9834025,19 L9.5,19 L9.5,7 L14.1975322,7 C16.6268836,7 18.5,8.78315133 18.5,11.0287051" id="Fill-7" fill="#000000"></path>
            </g>
        </g>
    </g>
</svg>