<svg width="80" height="80" viewBox="0 0 80 80" xmlns="http://www.w3.org/2000/svg">
    <defs>
        <filter id="xw1zkkrp1a">
            <feColorMatrix in="SourceGraphic" values="0 0 0 0 1.000000 0 0 0 0 0.925490 0 0 0 0 0.000000 0 0 0 1.000000 0"/>
        </filter>
        <filter id="h04i3gzwzb">
            <feColorMatrix in="SourceGraphic" values="0 0 0 0 1.000000 0 0 0 0 0.925490 0 0 0 0 0.000000 0 0 0 1.000000 0"/>
        </filter>
    </defs>
    <g fill="none" fill-rule="evenodd">
        <g>
            <circle fill="#000" cx="40" cy="40" r="40"/>
            <g filter="url(#xw1zkkrp1a)" font-family="NanumBarunGothicOTFBold, NanumBarunGothicOTF" font-size="12" font-weight="bold">
                <text fill="#FFF" transform="translate(18.5 47)">
                                    <tspan x=".592" y="10">등록완료</tspan>
                                </text>
            </g>
        </g>
        <g filter="url(#h04i3gzwzb)">
            <path d="M24 13h32v32H24V13z"/>
            <path d="M30.25 17.5h19.462v23H30.25z"/>
            <path d="M39.98 18.25c2.154 0 4.103.873 5.514 2.284a7.772 7.772 0 0 1 2.283 5.512v5.893l.913 3.936-6.45.34c.21 1.172-.03 2.15-.58 2.784a2.167 2.167 0 0 1-1.66.751 2.339 2.339 0 0 1-1.659-.687 2.36 2.36 0 0 1-.59-2.342l-6.19-.51.623-4.275v-5.89c0-2.152.873-4.102 2.284-5.512a7.772 7.772 0 0 1 5.513-2.284z" stroke="#000" stroke-width="1.5"/>
            <path fill="#000" d="M37.443 35.46h7.077v1.5h-7.077z"/>
            <path d="m37 28.409 1.843 1.869a1 1 0 0 0 1.424 0L43.5 27h0" stroke="#000" stroke-width="1.5" stroke-linecap="round"/>
        </g>
    </g>
</svg>
