<svg width="70" height="70" viewBox="0 0 70 70" xmlns="http://www.w3.org/2000/svg">
    <g fill="none" fill-rule="evenodd">
        <path d="M0 0h70v70H0z"/>
        <path d="M67.813 35c0 18.121-14.692 32.813-32.813 32.813C16.879 67.813 2.187 53.12 2.187 35 2.188 16.879 16.88 2.187 35 2.187 53.121 2.188 67.813 16.88 67.813 35" fill="#FFEC00"/>
        <path d="M42.302 28.114c-.55.643-1.502.732-2.126.198-.623-.534-.681-1.487-.13-2.13.552-.644 1.502-.733 2.125-.199.624.534.683 1.488.131 2.13M29.623 28.408c-.55.643-1.502.732-2.126.199-.623-.534-.68-1.488-.13-2.131.552-.643 1.502-.732 2.125-.198.624.533.683 1.487.131 2.13" fill="#000"/>
        <path d="M67.813 35c0 18.121-14.692 32.813-32.813 32.813C16.879 67.813 2.187 53.12 2.187 35 2.188 16.879 16.88 2.187 35 2.187 53.121 2.188 67.813 16.88 67.813 35z" stroke="#000" stroke-width="1.348" stroke-linecap="round" stroke-linejoin="round"/>
        <path d="M26.483 15.976c2.292.65 3.567 1.912 4.475 3.433M38.317 14.513l.736 1.155a9.345 9.345 0 0 1 6.793-1.206M30.736 32.305c3.004-1.653 6.224-1.366 9.04.657" stroke="#000" stroke-width="1.011" stroke-linecap="round" stroke-linejoin="round"/>
        <path d="M26.612 28.372c-.602.31-.283 1.374.445 1.456 0 0-.4 1.736-1.207 4.08-.81 2.344-2.156 10.697.888 12.043 2.101.93 3.315-.404 3.153-2.263-.162-1.858-2.35-3.839-.814-13.618 0 0 1.881-.203 1.318-1.182-.484-.838-1.012.09-2.247-.071-.929-.121-.808-.818-1.536-.445M43.14 27.975c.603.31.283 1.374-.444 1.455 0 0 .4 1.737 1.207 4.08.81 2.344 2.156 10.698-.888 12.044-2.101.93-3.315-.404-3.153-2.264.162-1.857 2.35-3.838.814-13.617 0 0-1.881-.203-1.318-1.182.484-.838 1.012.09 2.247-.071.929-.121.808-.818 1.536-.445" fill="#17CFFF"/>
    </g>
</svg>
