<svg xmlns="http://www.w3.org/2000/svg" xmlns:xlink="http://www.w3.org/1999/xlink" width="24" height="24" viewBox="0 0 24 24">
    <defs>
        <path id="5o2ym0ar7a" d="M0 0L24 0 24 23.999 0 23.999z"/>
        <path id="66d27lnzvc" d="M0 0L24 0 24 24 0 24z"/>
    </defs>
    <g fill="none" fill-rule="evenodd">
        <g>
            <g>
                <g transform="translate(-60.000000, -1553.000000) translate(60.000000, 1553.000000) translate(0.000000, 0.000183)">
                    <mask id="vn9jhkvaeb" fill="#fff">
                        <use xlink:href="#5o2ym0ar7a"/>
                    </mask>
                    <path fill="#FF0" d="M12 24C5.384 24 0 18.615 0 12 0 5.383 5.384 0 12 0s12 5.383 12 12c0 6.616-5.384 12-12 12" mask="url(#vn9jhkvaeb)"/>
                </g>
                <g transform="translate(-60.000000, -1553.000000) translate(60.000000, 1553.000000)">
                    <mask id="0u90zacf2d" fill="#fff">
                        <use xlink:href="#66d27lnzvc"/>
                    </mask>
                    <path fill="#000" d="M12 0C5.372 0 0 5.372 0 12s5.372 12 12 12c6.627 0 12-5.372 12-12S18.627 0 12 0m0 1.83C17.608 1.83 22.17 6.39 22.17 12c0 5.608-4.563 10.171-10.171 10.171C6.39 22.171 1.83 17.608 1.83 12 1.83 6.39 6.39 1.83 12 1.83" mask="url(#0u90zacf2d)"/>
                </g>
                <path fill="#000" d="M14.818 10.074c0-1.022-.721-1.776-1.709-1.776h-2.06v3.55h2.06c.988 0 1.709-.77 1.709-1.774m2.295 0c0 2.194-1.743 3.936-4.004 3.936h-2.06v3.852H8.737V6.137h4.372c2.261 0 4.004 1.743 4.004 3.937" transform="translate(-60.000000, -1553.000000) translate(60.000000, 1553.000000)"/>
            </g>
        </g>
    </g>
</svg>
