<svg width="30" height="30" viewBox="0 0 30 30" xmlns="http://www.w3.org/2000/svg">
    <g fill-rule="nonzero" fill="none">
        <path d="M15 0c8.284 0 15 6.716 15 15 0 8.284-6.716 15-15 15-8.284 0-15-6.716-15-15C0 6.716 6.716 0 15 0z" fill="#000"/>
        <path d="M0 0h30v30H0z"/>
        <path d="m17.212 11.632.218.01c.9.028 1.735.48 2.252 1.218a2.793 2.793 0 0 0-1.33 2.343A2.7 2.7 0 0 0 20 17.686a6.187 6.187 0 0 1-.857 1.746c-.505.755-1.034 1.493-1.874 1.506-.817.02-1.09-.48-2.027-.48-.945 0-1.238.467-2.02.5-.8.029-1.412-.807-1.935-1.555-1.046-1.528-1.86-4.305-.769-6.195a3 3 0 0 1 2.525-1.54c.8-.016 1.545.54 2.037.54.483 0 1.402-.666 2.35-.566zm.227-2.965a2.75 2.75 0 0 1-.629 1.97 2.314 2.314 0 0 1-1.827.864 2.617 2.617 0 0 1 .646-1.898 2.798 2.798 0 0 1 1.81-.936z" fill="#FFF"/>
    </g>
</svg>
