<svg width="32" height="32" viewBox="0 0 32 32" xmlns="http://www.w3.org/2000/svg">
    <g fill="none" fill-rule="evenodd">
        <path d="M4 4h24v24H4z"/>
        <path d="M18.033 5a1 1 0 0 1 1 1v1.512a8.991 8.991 0 0 1 2.885 1.679l1.37-.79a1 1 0 0 1 1.366.365l2 3.464a1 1 0 0 1-.366 1.366l-1.396.806a9.054 9.054 0 0 1-.009 3.243l1.309.755a1 1 0 0 1 .366 1.366l-2 3.464a1 1 0 0 1-1.366.366l-1.31-.755a8.99 8.99 0 0 1-2.85 1.647L19.034 26a1 1 0 0 1-.883.993l-.117.007h-4a1 1 0 0 1-.993-.883L13.033 26v-1.512a8.992 8.992 0 0 1-2.926-1.714l-1.424.822a1 1 0 0 1-1.302-.268l-.064-.098-2-3.464a1 1 0 0 1 .268-1.302l.098-.064 1.482-.855a9.058 9.058 0 0 1 .01-3.143l-1.396-.806a1 1 0 0 1-.419-1.261l.053-.105 2-3.464a1 1 0 0 1 1.261-.418l.105.052 1.37.79a8.991 8.991 0 0 1 2.884-1.678V6a1 1 0 0 1 1-1h4zm-2 8a3 3 0 1 0 0 6 3 3 0 0 0 0-6z" stroke="#000" stroke-width="1.5" stroke-linejoin="round"/>
    </g>
</svg>
