<svg width="32" height="32" viewBox="0 0 32 32" xmlns="http://www.w3.org/2000/svg">
    <g fill="none" fill-rule="evenodd">
        <path d="M15.966 5.25c2.153 0 4.102.873 5.513 2.284a7.772 7.772 0 0 1 2.284 5.512v5.893l.912 3.936-6.45.34c.21 1.172-.03 2.15-.579 2.784a2.167 2.167 0 0 1-1.66.751 2.339 2.339 0 0 1-1.66-.687 2.36 2.36 0 0 1-.59-2.342l-6.19-.51.624-4.275v-5.89c0-2.152.872-4.102 2.283-5.512a7.772 7.772 0 0 1 5.513-2.284z" stroke="#000" stroke-width="1.5"/>
        <path fill="#000" d="M12.428 22.46h7.077v1.5h-7.077z"/>
    </g>
</svg>
