<?xml version="1.0" encoding="UTF-8"?>
<svg width="360px" height="60px" viewBox="0 0 360 60" version="1.1" xmlns="http://www.w3.org/2000/svg" xmlns:xlink="http://www.w3.org/1999/xlink">
    <title>Group 3</title>
    <g id="Android" stroke="none" stroke-width="1" fill="none" fill-rule="evenodd">
        <g id="쇼핑-이벤트-상세" transform="translate(0.000000, -2069.000000)">
            <g id="Group-3" transform="translate(0.000000, 2069.000000)">
                <rect id="divider-copy-4" fill="#000000" opacity="0.05" x="0" y="0" width="360" height="60"></rect>
                <g id="이벤트상품-구매하고,-루픽리워드-받아" transform="translate(23.625000, 20.852000)" fill-rule="nonzero">
                    <path d="M13.32,16.686 L13.32,-5.15143483e-14 L11.088,-5.15143483e-14 L11.088,16.686 L13.32,16.686 Z M4.374,13.032 C7.002,13.032 8.748,10.872 8.748,6.984 C8.748,3.096 7.002,0.936 4.374,0.936 C1.746,0.936 -2.84217094e-14,3.096 -2.84217094e-14,6.984 C-2.84217094e-14,10.872 1.746,13.032 4.374,13.032 Z M4.374,11.124 C3.042,11.124 2.268,9.558 2.268,6.984 C2.268,4.41 3.042,2.844 4.374,2.844 C5.706,2.844 6.48,4.41 6.48,6.984 C6.48,9.558 5.706,11.124 4.374,11.124 Z M29.754,12.546 L29.754,-5.15143483e-14 L27.72,-5.15143483e-14 L27.72,12.546 L29.754,12.546 Z M26.586,12.204 L26.586,0.18 L24.57,0.18 L24.57,4.374 L22.824,4.374 L22.824,0.774 L20.808,0.774 L20.808,3.438 L18.396,3.438 L18.396,0.774 L16.362,0.774 L16.362,9.342 L22.824,9.342 L22.824,6.264 L24.57,6.264 L24.57,12.204 L26.586,12.204 Z M20.808,7.542 L18.396,7.542 L18.396,5.202 L20.808,5.202 L20.808,7.542 Z M30.024,16.362 L30.024,14.472 L21.348,14.472 L21.348,11.16 L19.098,11.16 L19.098,16.362 L30.024,16.362 Z M44.802,10.314 L44.802,8.478 L36.18,8.478 L36.18,6.57 L44.298,6.57 L44.298,4.77 L36.18,4.77 L36.18,3.114 L44.586,3.114 L44.586,1.242 L33.984,1.242 L33.984,10.314 L44.802,10.314 Z M46.98,14.364 L46.98,12.51 L31.536,12.51 L31.536,14.364 L46.98,14.364 Z M60.696,9.936 L60.696,5.778 L63.198,5.778 L63.198,3.906 L60.696,3.906 L60.696,-5.15143483e-14 L58.482,-5.15143483e-14 L58.482,9.936 L60.696,9.936 Z M48.834,9.684 C50.544,8.694 51.894,7.416 52.776,5.814 C53.694,7.236 54.936,8.37 56.466,9.108 L56.466,9.108 L57.834,7.65 C55.764,6.624 54.504,5.364 53.64,3.618 C53.892,2.646 54,1.566 53.982,0.414 L53.982,0.414 L51.714,0.414 C51.912,4.068 50.472,6.372 47.232,8.208 L47.232,8.208 L48.834,9.684 Z M55.44,16.812 C59.094,16.812 61.02,15.336 61.02,13.482 C61.02,11.592 59.094,10.116 55.44,10.116 C51.786,10.116 49.896,11.592 49.896,13.482 C49.896,15.336 51.786,16.812 55.44,16.812 Z M55.44,15.048 C53.046,15.048 52.146,14.274 52.146,13.482 C52.146,12.654 53.046,11.898 55.44,11.898 C57.834,11.898 58.752,12.654 58.752,13.482 C58.752,14.274 57.834,15.048 55.44,15.048 Z M77.256,2.25 L77.256,0.45 L65.556,0.45 L65.556,2.25 L77.256,2.25 Z M77.436,6.678 L77.436,4.914 L75.24,4.914 L75.366,2.79 L73.152,2.79 L73.044,4.914 L69.75,4.914 L69.678,2.79 L67.428,2.79 L67.536,4.914 L65.358,4.896 L65.358,6.678 L77.436,6.678 Z M76.824,16.434 L76.824,10.998 L72.468,10.998 L72.468,9.612 L79.272,9.612 L79.272,7.812 L63.504,7.812 L63.504,9.612 L70.218,9.612 L70.218,10.998 L65.934,10.998 L65.934,16.434 L76.824,16.434 Z M74.61,14.598 L68.13,14.598 L68.13,12.798 L74.61,12.798 L74.61,14.598 Z" id="이벤트상품" fill="#4AC0FF"></path>
                    <path d="M92.07,16.416 L92.07,9.18 L99.036,9.18 L99.036,8.28 L96.138,8.28 C96.57,6.03 96.804,3.222 96.804,0.846 L86.274,0.846 L86.274,1.764 L95.778,1.764 C95.778,3.672 95.49,6.246 95.148,8.28 L83.844,8.28 L83.844,9.18 L91.026,9.18 L91.026,16.416 L92.07,16.416 Z M113.706,16.506 L113.706,0.144 L112.716,0.144 L112.716,6.264 L110.016,6.264 L110.016,0.324 L109.044,0.324 L109.044,16.092 L110.016,16.092 L110.016,7.164 L112.716,7.164 L112.716,16.506 L113.706,16.506 Z M106.884,11.844 L106.884,1.656 L100.8,1.656 L100.8,11.844 L106.884,11.844 Z M105.894,10.944 L101.79,10.944 L101.79,2.556 L105.894,2.556 L105.894,10.944 Z M128.592,16.506 L128.592,8.244 L131.544,8.244 L131.544,7.308 L128.592,7.308 L128.592,0.144 L127.584,0.144 L127.584,16.506 L128.592,16.506 Z M123.624,1.656 L123.624,0.72 L118.098,0.72 L118.098,1.656 L123.624,1.656 Z M125.802,4.212 L125.802,3.312 L115.848,3.312 L115.848,4.212 L125.802,4.212 Z M120.924,12.69 C123.192,12.69 124.758,11.232 124.758,9.144 C124.758,7.092 123.192,5.58 120.924,5.58 C118.692,5.58 117.054,7.092 117.054,9.144 C117.054,11.232 118.692,12.69 120.924,12.69 Z M120.906,11.79 C119.25,11.79 118.08,10.728 118.08,9.144 C118.08,7.542 119.25,6.48 120.906,6.48 C122.634,6.48 123.732,7.542 123.732,9.144 C123.732,10.728 122.634,11.79 120.906,11.79 Z M143.784,10.656 C144.45,8.01 144.756,4.842 144.81,1.584 L134.352,1.584 L134.352,2.52 L143.784,2.52 C143.766,5.256 143.406,8.226 142.776,10.656 L143.784,10.656 Z M147.204,14.058 L147.204,13.158 L139.212,13.158 L139.212,7.02 L138.132,7.02 L138.132,13.158 L132.012,13.158 L132.012,14.058 L147.204,14.058 Z M149.184,16.92 C150.48,16.416 151.074,15.354 151.074,14.076 C151.074,13.194 150.642,12.798 150.012,12.798 C149.436,12.798 149.076,13.14 149.076,13.734 C149.076,14.364 149.436,14.67 149.994,14.67 C150.264,14.67 150.354,14.814 150.3,15.102 C150.174,15.75 149.796,16.29 148.95,16.56 L149.184,16.92 Z" id="구매하고," fill="#000000"></path>
                    <path d="M171.036,8.64 L171.036,6.822 L162.036,6.822 L162.036,5.526 L170.514,5.526 L170.514,0.576 L159.804,0.576 L159.804,2.448 L168.3,2.448 L168.3,3.78 L159.822,3.78 L159.822,8.64 L171.036,8.64 Z M166.338,16.596 L166.338,11.916 L172.782,11.916 L172.782,10.062 L157.338,10.062 L157.338,11.916 L164.106,11.916 L164.106,16.596 L166.338,16.596 Z M187.29,9.792 L187.29,3.32178729e-13 L185.058,3.32178729e-13 L185.058,9.792 L187.29,9.792 Z M183.636,2.628 L183.636,0.81 L173.754,0.81 L173.754,2.628 L183.636,2.628 Z M178.938,8.928 C180.918,8.928 182.916,8.784 184.59,8.334 L184.59,8.334 L184.59,6.588 C183.816,6.75 183.042,6.876 182.304,6.966 L182.304,6.966 L182.394,3.168 L180.252,3.168 L180.162,7.128 C179.748,7.146 179.316,7.146 178.902,7.146 L178.902,7.146 L177.408,7.146 L177.336,3.168 L175.158,3.168 L175.23,7.146 L173.412,7.146 L173.412,8.928 L178.938,8.928 Z M187.29,16.722 L187.29,10.494 L176.346,10.494 L176.346,12.33 L185.058,12.33 L185.058,16.722 L187.29,16.722 Z M203.346,16.686 L203.346,3.32178729e-13 L201.114,3.32178729e-13 L201.114,16.686 L203.346,16.686 Z M193.824,12.852 C196.128,12.852 198.828,12.51 200.466,12.096 L200.466,12.096 L200.466,10.26 C198.684,10.674 196.506,10.98 194.346,10.98 L194.346,10.98 L192.636,10.98 L192.636,7.848 L197.928,7.848 L197.928,1.296 L190.368,1.296 L190.368,3.186 L195.66,3.186 L195.66,5.976 L190.386,5.976 L190.386,12.852 L193.824,12.852 Z M219.798,16.686 L219.798,3.32178729e-13 L217.62,3.32178729e-13 L217.62,11.43 L214.038,11.43 L214.038,13.32 L217.62,13.32 L217.62,16.686 L219.798,16.686 Z M211.338,8.028 C214.002,8.028 215.748,6.48 215.748,4.374 C215.748,2.286 214.002,0.738 211.338,0.738 C208.692,0.738 206.964,2.286 206.964,4.374 C206.964,6.48 208.692,8.028 211.338,8.028 Z M211.338,6.174 C209.88,6.174 209.142,5.544 209.142,4.374 C209.142,3.258 209.898,2.574 211.338,2.574 C212.742,2.574 213.534,3.258 213.534,4.374 C213.534,5.544 212.76,6.174 211.338,6.174 Z M212.526,16.326 L212.526,10.584 C214.11,10.494 215.694,10.35 217.062,10.17 L217.062,10.17 L217.062,8.334 C214.416,8.676 211.086,8.802 208.584,8.802 L208.584,8.802 L205.776,8.802 L205.776,10.692 L209.170667,10.6913333 C209.532,10.69 209.904,10.686 210.276,10.674 L210.276,10.674 L210.276,16.326 L212.526,16.326 Z M234.774,9.63 L234.774,7.686 L226.278,7.686 L226.278,3.294 L234.63,3.294 L234.63,1.404 L224.046,1.404 L224.046,9.63 L234.774,9.63 Z M237.006,14.274 L237.006,12.42 L221.562,12.42 L221.562,14.274 L237.006,14.274 Z" id="루픽리워드" fill="#4AC0FF"></path>
                    <path d="M254.484,9.486 L254.484,4.95 L257.202,4.95 L257.202,4.032 L254.484,4.032 L254.484,0.144 L253.476,0.144 L253.476,9.486 L254.484,9.486 Z M249.858,8.226 L249.858,0.54 L248.832,0.54 L248.832,3.348 L243.522,3.348 L243.522,0.54 L242.496,0.54 L242.496,8.226 L249.858,8.226 Z M248.832,7.326 L243.522,7.326 L243.522,4.23 L248.832,4.23 L248.832,7.326 Z M254.826,16.254 L254.826,15.336 L245.736,15.336 L245.736,11.52 L254.52,11.52 L254.52,10.584 L244.71,10.584 L244.71,16.254 L254.826,16.254 Z M270.45,16.506 L270.45,7.362 L273.402,7.362 L273.402,6.408 L270.45,6.408 L270.45,0.144 L269.442,0.144 L269.442,16.506 L270.45,16.506 Z M262.422,12.852 C264.744,12.852 266.49,10.818 266.49,7.002 C266.49,3.186 264.744,1.152 262.422,1.152 C260.136,1.152 258.318,3.186 258.318,7.002 C258.318,10.818 260.136,12.852 262.422,12.852 Z M262.422,11.952 C260.424,11.952 259.344,9.936 259.344,7.002 C259.344,4.068 260.424,2.052 262.422,2.052 C264.384,2.052 265.518,4.068 265.518,7.002 C265.518,9.936 264.384,11.952 262.422,11.952 Z M289.062,14.058 L289.062,13.158 L281.988,13.158 L281.988,9.504 L286.56,9.504 L286.56,1.152 L285.516,1.152 L285.516,4.05 L277.452,4.05 L277.452,1.152 L276.408,1.152 L276.408,9.504 L280.908,9.504 L280.908,13.158 L273.87,13.158 L273.87,14.058 L289.062,14.058 Z M285.516,8.604 L277.452,8.604 L277.452,4.95 L285.516,4.95 L285.516,8.604 Z M302.562,16.506 L302.562,7.362 L305.514,7.362 L305.514,6.408 L302.562,6.408 L302.562,0.144 L301.554,0.144 L301.554,16.506 L302.562,16.506 Z M290.43,12.996 C292.464,11.682 294.156,10.044 295.398,8.172 C296.46,9.828 297.72,11.322 299.178,12.474 L300.042,11.646 C298.314,10.422 296.946,8.928 295.956,7.29 C297.018,5.49 297.63,3.564 297.774,1.548 C296.6076,1.5912 295.4988,1.59984 294.373872,1.601568 L290.718,1.602 L290.718,2.52 L292.5,2.52 C293.94,2.52 295.164,2.52 296.604,2.466 C296.262,5.58 294.246,9.558 289.674,12.258 L290.43,12.996 Z M309.384,10.872 L309.654,0.9 L308.448,0.9 L308.646,10.872 L309.384,10.872 Z M309.042,14.976 C309.564,14.976 309.978,14.562 309.978,14.04 C309.978,13.518 309.564,13.104 309.042,13.104 C308.52,13.104 308.106,13.518 308.106,14.04 C308.106,14.562 308.52,14.976 309.042,14.976 Z" id="받아보자!" fill="#000000"></path>
                </g>
            </g>
        </g>
    </g>
</svg>