<?xml version="1.0" encoding="UTF-8"?>
<svg width="375px" height="60px" viewBox="0 0 375 60" version="1.1" xmlns="http://www.w3.org/2000/svg" xmlns:xlink="http://www.w3.org/1999/xlink">
    <title>Group 4</title>
    <g id="iOS" stroke="none" stroke-width="1" fill="none" fill-rule="evenodd">
        <g id="프리-이벤트-상세" transform="translate(0.000000, -1545.000000)">
            <g id="Group-4" transform="translate(0.000000, 1545.000000)">
                <rect id="divider-copy-4" fill="#000000" opacity="0.05" x="0" y="0" width="375" height="60"></rect>
                <g id="무료참여-하고,-루픽리워드-받아보자!" transform="translate(39.890000, 20.200000)" fill-rule="nonzero">
                    <path d="M14.54,8.54 L14.54,0.72 L2.62,0.72 L2.62,8.54 L14.54,8.54 Z M12.08,6.5 L5.06,6.5 L5.06,2.82 L12.08,2.82 L12.08,6.5 Z M9.84,18.52 L9.84,12.5 L17.16,12.5 L17.16,10.44 L2.48689958e-13,10.44 L2.48689958e-13,12.5 L7.32,12.5 L7.32,18.52 L9.84,18.52 Z M34.98,15.98 L34.98,13.92 L30.4,13.92 L30.4,11.32 L32.88,11.32 L32.88,9.26 L22.98,9.26 L22.98,7.32 L32.32,7.32 L32.32,1.26 L20.52,1.26 L20.52,3.36 L29.84,3.36 L29.84,5.3 L20.54,5.3 L20.54,11.32 L22.92,11.32 L22.92,13.92 L17.82,13.92 L17.82,15.98 L34.98,15.98 Z M27.96,13.92 L25.36,13.92 L25.36,11.32 L27.96,11.32 L27.96,13.92 Z M44.08,1.9 L44.08,0 L38.4,0 L38.4,1.9 L44.08,1.9 Z M50.26,11 L50.26,7.22 L53.04,7.22 L53.04,5.14 L50.26,5.14 L50.26,0.08 L47.8,0.08 L47.8,11 L50.26,11 Z M37.04,11.12 C38.82,10.5 40.56,9.58 41.96,8.46 C43.2,9.42 44.54,10.18 46.04,10.78 L46.04,10.78 L47.28,9.08 C45.8,8.56 44.54,7.94 43.4,7.16 C44.58,5.9 45.34,4.46 45.44,2.92 C43.72,2.98 42.02,2.98 40.28,2.98 L36.8,2.98 L36.8,4.86 L39.28,4.86 C40.36,4.86 41.3,4.84 42.4,4.8 C41.94,6.04 39.92,8.14 35.76,9.44 L35.76,9.44 L37.04,11.12 Z M50.26,18.34 L50.26,11.78 L38.68,11.78 L38.68,18.34 L50.26,18.34 Z M47.8,16.32 L41.16,16.32 L41.16,13.82 L47.8,13.82 L47.8,16.32 Z M68.94,18.62 L68.94,0.08 L66.46,0.08 L66.46,3.68 L62.94,3.68 C62.12,2 60.72,1.12 58.94,1.12 C56.02,1.12 54.08,3.52 54.08,7.84 C54.08,12.16 56.02,14.56 58.94,14.56 C60.84,14.56 62.32,13.54 63.12,11.62 L63.12,11.62 L66.46,11.62 L66.46,18.62 L68.94,18.62 Z M58.94,12.44 C57.46,12.44 56.6,10.7 56.6,7.84 C56.6,4.98 57.46,3.24 58.94,3.24 C60.42,3.24 61.28,4.98 61.28,7.84 C61.28,10.7 60.42,12.44 58.94,12.44 Z M66.48,9.58 L63.64,9.58 C63.72,9.04 63.76,8.46 63.76,7.84 C63.76,7.06 63.7,6.34 63.58,5.7 L63.58,5.7 L66.48,5.7 L66.48,9.58 Z" id="무료참여" fill="#4AC0FF"></path>
                    <path d="M89.98,18.42 L89.98,9.24 L93.26,9.24 L93.26,8.2 L89.98,8.2 L89.98,0.24 L88.86,0.24 L88.86,18.42 L89.98,18.42 Z M84.46,1.92 L84.46,0.88 L78.32,0.88 L78.32,1.92 L84.46,1.92 Z M86.88,4.76 L86.88,3.76 L75.82,3.76 L75.82,4.76 L86.88,4.76 Z M81.46,14.18 C83.98,14.18 85.72,12.56 85.72,10.24 C85.72,7.96 83.98,6.28 81.46,6.28 C78.98,6.28 77.16,7.96 77.16,10.24 C77.16,12.56 78.98,14.18 81.46,14.18 Z M81.44,13.18 C79.6,13.18 78.3,12 78.3,10.24 C78.3,8.46 79.6,7.28 81.44,7.28 C83.36,7.28 84.58,8.46 84.58,10.24 C84.58,12 83.36,13.18 81.44,13.18 Z M106.86,11.92 C107.6,8.98 107.94,5.46 108,1.84 L96.38,1.84 L96.38,2.88 L106.86,2.88 C106.84,5.92 106.44,9.22 105.74,11.92 L106.86,11.92 Z M110.66,15.7 L110.66,14.7 L101.78,14.7 L101.78,7.88 L100.58,7.88 L100.58,14.7 L93.78,14.7 L93.78,15.7 L110.66,15.7 Z M112.86,18.88 C114.3,18.32 114.96,17.14 114.96,15.72 C114.96,14.74 114.48,14.3 113.78,14.3 C113.14,14.3 112.74,14.68 112.74,15.34 C112.74,16.04 113.14,16.38 113.76,16.38 C114.06,16.38 114.16,16.54 114.1,16.86 C113.96,17.58 113.54,18.18 112.6,18.48 L112.86,18.88 Z" id="하고," fill="#000000"></path>
                    <path d="M137.14,9.68 L137.14,7.66 L127.14,7.66 L127.14,6.22 L136.56,6.22 L136.56,0.72 L124.66,0.72 L124.66,2.8 L134.1,2.8 L134.1,4.28 L124.68,4.28 L124.68,9.68 L137.14,9.68 Z M131.92,18.52 L131.92,13.32 L139.08,13.32 L139.08,11.26 L121.92,11.26 L121.92,13.32 L129.44,13.32 L129.44,18.52 L131.92,18.52 Z M155.2,10.96 L155.2,0.08 L152.72,0.08 L152.72,10.96 L155.2,10.96 Z M151.14,3 L151.14,0.98 L140.16,0.98 L140.16,3 L151.14,3 Z M145.92,10 C148.12,10 150.34,9.84 152.2,9.34 L152.2,9.34 L152.2,7.4 C151.34,7.58 150.48,7.72 149.66,7.82 L149.66,7.82 L149.76,3.6 L147.38,3.6 L147.28,8 C146.82,8.02 146.34,8.02 145.88,8.02 L144.22,8.02 L144.14,3.6 L141.72,3.6 L141.8,8.02 L139.78,8.02 L139.78,10 L145.92,10 Z M155.2,18.66 L155.2,11.74 L143.04,11.74 L143.04,13.78 L152.72,13.78 L152.72,18.66 L155.2,18.66 Z M173.04,18.62 L173.04,0.08 L170.56,0.08 L170.56,18.62 L173.04,18.62 Z M162.46,14.36 C165.02,14.36 168.02,13.98 169.84,13.52 L169.84,13.52 L169.84,11.48 C167.86,11.94 165.44,12.28 163.04,12.28 L163.04,12.28 L161.14,12.28 L161.14,8.8 L167.02,8.8 L167.02,1.52 L158.62,1.52 L158.62,3.62 L164.5,3.62 L164.5,6.72 L158.64,6.72 L158.64,14.36 L162.46,14.36 Z M191.32,18.62 L191.32,0.08 L188.9,0.08 L188.9,12.78 L184.92,12.78 L184.92,14.88 L188.9,14.88 L188.9,18.62 L191.32,18.62 Z M181.92,9 C184.88,9 186.82,7.28 186.82,4.94 C186.82,2.62 184.88,0.9 181.92,0.9 C178.98,0.9 177.06,2.62 177.06,4.94 C177.06,7.28 178.98,9 181.92,9 Z M181.92,6.94 C180.3,6.94 179.48,6.24 179.48,4.94 C179.48,3.7 180.32,2.94 181.92,2.94 C183.48,2.94 184.36,3.7 184.36,4.94 C184.36,6.24 183.5,6.94 181.92,6.94 Z M183.24,18.22 L183.24,11.84 C185,11.74 186.76,11.58 188.28,11.38 L188.28,11.38 L188.28,9.34 C185.34,9.72 181.64,9.86 178.86,9.86 L178.86,9.86 L175.74,9.86 L175.74,11.96 L179.511852,11.9592593 C179.913333,11.9577778 180.326667,11.9533333 180.74,11.94 L180.74,11.94 L180.74,18.22 L183.24,18.22 Z M207.96,10.78 L207.96,8.62 L198.52,8.62 L198.52,3.74 L207.8,3.74 L207.8,1.64 L196.04,1.64 L196.04,10.78 L207.96,10.78 Z M210.44,15.94 L210.44,13.88 L193.28,13.88 L193.28,15.94 L210.44,15.94 Z" id="루픽리워드" fill="#4AC0FF"></path>
                    <path d="M229.86,10.62 L229.86,5.58 L232.88,5.58 L232.88,4.56 L229.86,4.56 L229.86,0.24 L228.74,0.24 L228.74,10.62 L229.86,10.62 Z M224.72,9.22 L224.72,0.68 L223.58,0.68 L223.58,3.8 L217.68,3.8 L217.68,0.68 L216.54,0.68 L216.54,9.22 L224.72,9.22 Z M223.58,8.22 L217.68,8.22 L217.68,4.78 L223.58,4.78 L223.58,8.22 Z M230.24,18.14 L230.24,17.12 L220.14,17.12 L220.14,12.88 L229.9,12.88 L229.9,11.84 L219,11.84 L219,18.14 L230.24,18.14 Z M247.6,18.42 L247.6,8.26 L250.88,8.26 L250.88,7.2 L247.6,7.2 L247.6,0.24 L246.48,0.24 L246.48,18.42 L247.6,18.42 Z M238.68,14.36 C241.26,14.36 243.2,12.1 243.2,7.86 C243.2,3.62 241.26,1.36 238.68,1.36 C236.14,1.36 234.12,3.62 234.12,7.86 C234.12,12.1 236.14,14.36 238.68,14.36 Z M238.68,13.36 C236.46,13.36 235.26,11.12 235.26,7.86 C235.26,4.6 236.46,2.36 238.68,2.36 C240.86,2.36 242.12,4.6 242.12,7.86 C242.12,11.12 240.86,13.36 238.68,13.36 Z M268.28,15.7 L268.28,14.7 L260.42,14.7 L260.42,10.64 L265.5,10.64 L265.5,1.36 L264.34,1.36 L264.34,4.58 L255.38,4.58 L255.38,1.36 L254.22,1.36 L254.22,10.64 L259.22,10.64 L259.22,14.7 L251.4,14.7 L251.4,15.7 L268.28,15.7 Z M264.34,9.64 L255.38,9.64 L255.38,5.58 L264.34,5.58 L264.34,9.64 Z M283.28,18.42 L283.28,8.26 L286.56,8.26 L286.56,7.2 L283.28,7.2 L283.28,0.24 L282.16,0.24 L282.16,18.42 L283.28,18.42 Z M269.8,14.52 C272.06,13.06 273.94,11.24 275.32,9.16 C276.5,11 277.9,12.66 279.52,13.94 L280.48,13.02 C278.56,11.66 277.04,10 275.94,8.18 C277.12,6.18 277.8,4.04 277.96,1.8 C276.34,1.86 274.82,1.86 273.24,1.86 L270.12,1.86 L270.12,2.88 L272.1,2.88 C273.7,2.88 275.06,2.88 276.66,2.82 C276.28,6.28 274.04,10.7 268.96,13.7 L269.8,14.52 Z M290.86,12.16 L291.16,1.08 L289.82,1.08 L290.04,12.16 L290.86,12.16 Z M290.48,16.72 C291.06,16.72 291.52,16.26 291.52,15.68 C291.52,15.1 291.06,14.64 290.48,14.64 C289.9,14.64 289.44,15.1 289.44,15.68 C289.44,16.26 289.9,16.72 290.48,16.72 Z" id="받아보자!" fill="#000000"></path>
                </g>
            </g>
        </g>
    </g>
</svg>