<?xml version="1.0" encoding="UTF-8"?>
<svg width="375px" height="60px" viewBox="0 0 375 60" version="1.1" xmlns="http://www.w3.org/2000/svg" xmlns:xlink="http://www.w3.org/1999/xlink">
    <title>Group 5</title>
    <g id="iOS" stroke="none" stroke-width="1" fill="none" fill-rule="evenodd">
        <g id="포인트-이벤트-상세" transform="translate(0.000000, -1427.000000)">
            <g id="Group-5" transform="translate(0.000000, 1427.000000)">
                <rect id="divider-copy-4" fill="#000000" opacity="0.05" x="0" y="0" width="375" height="60"></rect>
                <g id="포인트로-참여하고,-루픽리워드-받아보" transform="translate(22.030000, 20.280000)" fill-rule="nonzero">
                    <path d="M15,3.46 L15,1.4 L2.22,1.4 L2.22,3.46 L15,3.46 Z M17.16,15.94 L17.16,13.88 L9.78,13.88 L9.78,10.72 L15.3,10.72 L15.3,8.66 L12.8,8.66 L13.02,4.06 L10.56,4.06 L10.4,8.68 L6.78,8.68 L6.68,4.06 L4.2,4.06 L4.34,8.66 L1.9,8.66 L1.9,10.72 L7.26,10.72 L7.26,13.88 L-3.12638804e-13,13.88 L-3.12638804e-13,15.94 L17.16,15.94 Z M33.26,13.18 L33.26,-1.13686838e-13 L30.8,-1.13686838e-13 L30.8,13.18 L33.26,13.18 Z M23.38,10.3 C26.28,10.3 28.36,8.22 28.36,5.54 C28.36,2.78 26.28,0.7 23.38,0.7 C20.52,0.7 18.48,2.78 18.48,5.54 C18.48,8.22 20.48,10.3 23.38,10.3 Z M23.42,8.18 C21.94,8.18 21.04,7.16 21.04,5.54 C21.04,3.82 21.96,2.78 23.42,2.78 C24.86,2.78 25.82,3.82 25.82,5.54 C25.82,7.16 24.86,8.18 23.42,8.18 Z M33.64,18.18 L33.64,16.08 L23.98,16.08 L23.98,12.46 L21.52,12.46 L21.52,18.18 L33.64,18.18 Z M50.42,11.46 L50.42,9.42 L40.84,9.42 L40.84,7.3 L49.86,7.3 L49.86,5.3 L40.84,5.3 L40.84,3.46 L50.18,3.46 L50.18,1.38 L38.4,1.38 L38.4,11.46 L50.42,11.46 Z M52.84,15.96 L52.84,13.9 L35.68,13.9 L35.68,15.96 L52.84,15.96 Z M70.68,16 L70.68,13.94 L63.36,13.94 L63.36,11.42 L68.58,11.42 L68.58,9.36 L58.68,9.36 L58.68,7.38 L68.02,7.38 L68.02,1.2 L56.22,1.2 L56.22,3.3 L65.54,3.3 L65.54,5.36 L56.24,5.36 L56.24,11.42 L60.84,11.42 L60.84,13.94 L53.52,13.94 L53.52,16 L70.68,16 Z" id="포인트로" fill="#4AC0FF"></path>
                    <path d="M84.12,1.1 L84.12,0.06 L78.7,0.06 L78.7,1.1 L84.12,1.1 Z M90.1,10.76 L90.1,6.68 L93.12,6.68 L93.12,5.64 L90.1,5.64 L90.1,0.16 L88.98,0.16 L88.98,10.76 L90.1,10.76 Z M76.84,10.94 C78.9,10.22 80.9,9.12 82.5,7.7 C83.62,8.76 85.08,9.76 86.44,10.4 L87.18,9.5 C85.68,8.86 84.28,7.94 83.22,7 C84.48,5.7 85.32,4.18 85.54,2.48 C84.325,2.525 83.155,2.53625 81.9709375,2.5390625 L77.08,2.54 L77.08,3.54 L80.82,3.54 C81.92,3.54 82.9,3.52 84.14,3.48 C83.56,6.04 80.28,8.66 76.12,10.04 L76.84,10.94 Z M90.1,18.06 L90.1,11.96 L79.2,11.96 L79.2,18.06 L90.1,18.06 Z M88.98,17.04 L80.34,17.04 L80.34,12.96 L88.98,12.96 L88.98,17.04 Z M108.84,18.34 L108.84,0.16 L107.72,0.16 L107.72,4.28 L103,4.28 C102.22,2.3 100.8,1.28 99.04,1.28 C96.5,1.28 94.5,3.54 94.5,7.78 C94.5,12.02 96.5,14.28 99.04,14.28 C100.9,14.28 102.44,13.1 103.14,10.84 L107.72,10.84 L107.72,18.34 L108.84,18.34 Z M99.04,13.28 C96.84,13.28 95.64,11.04 95.64,7.78 C95.64,4.52 96.84,2.28 99.04,2.28 C101.26,2.28 102.44,4.52 102.44,7.78 C102.44,11.04 101.26,13.28 99.04,13.28 Z M107.72,9.84 L103.4,9.84 C103.52,9.22 103.58,8.54 103.58,7.78 C103.58,6.84 103.48,6.02 103.32,5.28 L107.72,5.28 L107.72,9.84 Z M125.68,18.34 L125.68,9.16 L128.96,9.16 L128.96,8.12 L125.68,8.12 L125.68,0.16 L124.56,0.16 L124.56,18.34 L125.68,18.34 Z M120.16,1.84 L120.16,0.8 L114.02,0.8 L114.02,1.84 L120.16,1.84 Z M122.58,4.68 L122.58,3.68 L111.52,3.68 L111.52,4.68 L122.58,4.68 Z M117.16,14.1 C119.68,14.1 121.42,12.48 121.42,10.16 C121.42,7.88 119.68,6.2 117.16,6.2 C114.68,6.2 112.86,7.88 112.86,10.16 C112.86,12.48 114.68,14.1 117.16,14.1 Z M117.14,13.1 C115.3,13.1 114,11.92 114,10.16 C114,8.38 115.3,7.2 117.14,7.2 C119.06,7.2 120.28,8.38 120.28,10.16 C120.28,11.92 119.06,13.1 117.14,13.1 Z M142.56,11.84 C143.3,8.9 143.64,5.38 143.7,1.76 L132.08,1.76 L132.08,2.8 L142.56,2.8 C142.54,5.84 142.14,9.14 141.44,11.84 L142.56,11.84 Z M146.36,15.62 L146.36,14.62 L137.48,14.62 L137.48,7.8 L136.28,7.8 L136.28,14.62 L129.48,14.62 L129.48,15.62 L146.36,15.62 Z M148.56,18.8 C150,18.24 150.66,17.06 150.66,15.64 C150.66,14.66 150.18,14.22 149.48,14.22 C148.84,14.22 148.44,14.6 148.44,15.26 C148.44,15.96 148.84,16.3 149.46,16.3 C149.76,16.3 149.86,16.46 149.8,16.78 C149.66,17.5 149.24,18.1 148.3,18.4 L148.56,18.8 Z" id="참여하고," fill="#000000"></path>
                    <path d="M172.84,9.6 L172.84,7.58 L162.84,7.58 L162.84,6.14 L172.26,6.14 L172.26,0.64 L160.36,0.64 L160.36,2.72 L169.8,2.72 L169.8,4.2 L160.38,4.2 L160.38,9.6 L172.84,9.6 Z M167.62,18.44 L167.62,13.24 L174.78,13.24 L174.78,11.18 L157.62,11.18 L157.62,13.24 L165.14,13.24 L165.14,18.44 L167.62,18.44 Z M190.9,10.88 L190.9,0 L188.42,0 L188.42,10.88 L190.9,10.88 Z M186.84,2.92 L186.84,0.9 L175.86,0.9 L175.86,2.92 L186.84,2.92 Z M181.62,9.92 C183.82,9.92 186.04,9.76 187.9,9.26 L187.9,9.26 L187.9,7.32 C187.04,7.5 186.18,7.64 185.36,7.74 L185.36,7.74 L185.46,3.52 L183.08,3.52 L182.98,7.92 C182.52,7.94 182.04,7.94 181.58,7.94 L179.92,7.94 L179.84,3.52 L177.42,3.52 L177.5,7.94 L175.48,7.94 L175.48,9.92 L181.62,9.92 Z M190.9,18.58 L190.9,11.66 L178.74,11.66 L178.74,13.7 L188.42,13.7 L188.42,18.58 L190.9,18.58 Z M208.74,18.54 L208.74,0 L206.26,0 L206.26,18.54 L208.74,18.54 Z M198.16,14.28 C200.72,14.28 203.72,13.9 205.54,13.44 L205.54,13.44 L205.54,11.4 C203.56,11.86 201.14,12.2 198.74,12.2 L198.74,12.2 L196.84,12.2 L196.84,8.72 L202.72,8.72 L202.72,1.44 L194.32,1.44 L194.32,3.54 L200.2,3.54 L200.2,6.64 L194.34,6.64 L194.34,14.28 L198.16,14.28 Z M227.02,18.54 L227.02,0 L224.6,0 L224.6,12.7 L220.62,12.7 L220.62,14.8 L224.6,14.8 L224.6,18.54 L227.02,18.54 Z M217.62,8.92 C220.58,8.92 222.52,7.2 222.52,4.86 C222.52,2.54 220.58,0.82 217.62,0.82 C214.68,0.82 212.76,2.54 212.76,4.86 C212.76,7.2 214.68,8.92 217.62,8.92 Z M217.62,6.86 C216,6.86 215.18,6.16 215.18,4.86 C215.18,3.62 216.02,2.86 217.62,2.86 C219.18,2.86 220.06,3.62 220.06,4.86 C220.06,6.16 219.2,6.86 217.62,6.86 Z M218.94,18.14 L218.94,11.76 C220.7,11.66 222.46,11.5 223.98,11.3 L223.98,11.3 L223.98,9.26 C221.04,9.64 217.34,9.78 214.56,9.78 L214.56,9.78 L211.44,9.78 L211.44,11.88 L215.211852,11.8792593 C215.613333,11.8777778 216.026667,11.8733333 216.44,11.86 L216.44,11.86 L216.44,18.14 L218.94,18.14 Z M243.66,10.7 L243.66,8.54 L234.22,8.54 L234.22,3.66 L243.5,3.66 L243.5,1.56 L231.74,1.56 L231.74,10.7 L243.66,10.7 Z M246.14,15.86 L246.14,13.8 L228.98,13.8 L228.98,15.86 L246.14,15.86 Z" id="루픽리워드" fill="#4AC0FF"></path>
                    <path d="M265.56,10.54 L265.56,5.5 L268.58,5.5 L268.58,4.48 L265.56,4.48 L265.56,0.16 L264.44,0.16 L264.44,10.54 L265.56,10.54 Z M260.42,9.14 L260.42,0.6 L259.28,0.6 L259.28,3.72 L253.38,3.72 L253.38,0.6 L252.24,0.6 L252.24,9.14 L260.42,9.14 Z M259.28,8.14 L253.38,8.14 L253.38,4.7 L259.28,4.7 L259.28,8.14 Z M265.94,18.06 L265.94,17.04 L255.84,17.04 L255.84,12.8 L265.6,12.8 L265.6,11.76 L254.7,11.76 L254.7,18.06 L265.94,18.06 Z M283.3,18.34 L283.3,8.18 L286.58,8.18 L286.58,7.12 L283.3,7.12 L283.3,0.16 L282.18,0.16 L282.18,18.34 L283.3,18.34 Z M274.38,14.28 C276.96,14.28 278.9,12.02 278.9,7.78 C278.9,3.54 276.96,1.28 274.38,1.28 C271.84,1.28 269.82,3.54 269.82,7.78 C269.82,12.02 271.84,14.28 274.38,14.28 Z M274.38,13.28 C272.16,13.28 270.96,11.04 270.96,7.78 C270.96,4.52 272.16,2.28 274.38,2.28 C276.56,2.28 277.82,4.52 277.82,7.78 C277.82,11.04 276.56,13.28 274.38,13.28 Z M303.98,15.62 L303.98,14.62 L296.12,14.62 L296.12,10.56 L301.2,10.56 L301.2,1.28 L300.04,1.28 L300.04,4.5 L291.08,4.5 L291.08,1.28 L289.92,1.28 L289.92,10.56 L294.92,10.56 L294.92,14.62 L287.1,14.62 L287.1,15.62 L303.98,15.62 Z M300.04,9.56 L291.08,9.56 L291.08,5.5 L300.04,5.5 L300.04,9.56 Z M318.98,18.34 L318.98,8.18 L322.26,8.18 L322.26,7.12 L318.98,7.12 L318.98,0.16 L317.86,0.16 L317.86,18.34 L318.98,18.34 Z M305.5,14.44 C307.76,12.98 309.64,11.16 311.02,9.08 C312.2,10.92 313.6,12.58 315.22,13.86 L316.18,12.94 C314.26,11.58 312.74,9.92 311.64,8.1 C312.82,6.1 313.5,3.96 313.66,1.72 C312.04,1.78 310.52,1.78 308.94,1.78 L305.82,1.78 L305.82,2.8 L307.8,2.8 C309.4,2.8 310.76,2.8 312.36,2.74 C311.98,6.2 309.74,10.62 304.66,13.62 L305.5,14.44 Z M326.56,12.08 L326.86,1 L325.52,1 L325.74,12.08 L326.56,12.08 Z M326.18,16.64 C326.76,16.64 327.22,16.18 327.22,15.6 C327.22,15.02 326.76,14.56 326.18,14.56 C325.6,14.56 325.14,15.02 325.14,15.6 C325.14,16.18 325.6,16.64 326.18,16.64 Z" id="받아보자!" fill="#000000"></path>
                </g>
            </g>
        </g>
    </g>
</svg>