<svg xmlns="http://www.w3.org/2000/svg" width="147" height="45" viewBox="0 0 147 45">
    <g fill="none" fill-rule="evenodd">
        <g fill="#000">
            <g>
                <path d="M63.216 10.313c6.574 0 11.971 5.586 11.971 12.825 0 7.239-5.397 12.826-11.971 12.826-3.583 0-6.183-1.312-7.949-3.547V45h-6.33V10.993h6.33v2.866c1.766-2.235 4.366-3.546 7.949-3.546zm-34.313 0v14.33c0 3.349 1.975 5.072 4.77 5.072 3.035 0 5.3-1.822 5.3-6.106V10.312h6.215v24.623h-6.216v-2.757c-1.445 2.216-3.95 3.447-7.179 3.447-5.106 0-9.105-3.644-9.105-10.194V10.312h6.215zm71.1 0c4.687 0 8.752 2.492 10.714 6.184l-5.31 3.116c-.956-1.966-3.013-3.212-5.452-3.212-3.684 0-6.41 2.732-6.41 6.568 0 3.787 2.726 6.52 6.41 6.52 2.487 0 4.543-1.199 5.5-3.165l5.358 3.069c-2.058 3.74-6.123 6.232-10.81 6.232-7.271 0-12.628-5.513-12.628-12.656 0-7.143 5.357-12.657 12.627-12.657zM7.832.937v27.386h12.98v6.364H1.125V.938h6.708zm76.022 9.629v24.121H77.77V10.567h6.085zM118.984.937v20.25l8.395-10.606h7.516l-9.81 11.908 10.103 12.198h-7.321l-8.883-10.944v10.945h-6.296V.938h6.296zM145.5 28.125v6.563h-6.563v-6.563h6.563zM62.038 16.288c-3.876 0-6.77 2.77-6.77 6.85 0 4.081 2.894 6.85 6.77 6.85 3.925 0 6.82-2.769 6.82-6.85 0-4.08-2.895-6.85-6.82-6.85zM80.788 0c2.076 0 3.775 1.785 3.775 3.86 0 2.074-1.699 3.811-3.774 3.811-2.029 0-3.727-1.737-3.727-3.812C77.063 1.785 78.76 0 80.79 0z" transform="translate(-112 -232) translate(69 232) translate(43)"/>
            </g>
        </g>
    </g>
</svg>
