<?xml version="1.0" encoding="UTF-8"?>
<svg width="65px" height="20px" viewBox="0 0 65 20" version="1.1" xmlns="http://www.w3.org/2000/svg" xmlns:xlink="http://www.w3.org/1999/xlink">
    <title>Logo</title>
    <g id="-iOS" stroke="none" stroke-width="1" fill="none" fill-rule="evenodd" opacity="0.4">
        <g id="홈" transform="translate(-20.000000, -4158.000000)" fill="#000000">
            <g id="사업자정보" transform="translate(20.000000, 4117.000000)">
                <path d="M0,41.4166667 L0,56.4166667 L8.75,56.4166667 L8.75,53.5880019 L2.98143,53.5880019 L2.98143,41.4166667 L0,41.4166667 Z M19.5833333,45.5833333 L19.5833333,56.5267684 L16.8209537,56.5267684 L16.8209537,55.3012739 C16.1785746,56.2861692 15.0651176,56.8333333 13.6303213,56.8333333 C11.3607318,56.8333333 9.58333333,55.2135745 9.58333333,52.3026615 L9.58333333,45.5833333 L12.345713,45.5833333 L12.345713,51.9524765 C12.345713,53.4407629 13.2234813,54.2067926 14.4655638,54.2067926 C15.8145598,54.2067926 16.8209537,53.3969897 16.8209537,51.4928587 L16.8209537,45.5833333 L19.5833333,45.5833333 Z M30.1035036,51.2835018 C30.1035036,49.4698118 28.8169329,48.2390936 27.0724302,48.2390936 C25.3497338,48.2390936 24.0631631,49.4698118 24.0631631,51.2835018 C24.0631631,53.0973427 25.3497338,54.3280609 27.0724302,54.3280609 C28.8169329,54.3280609 30.1035036,53.0973427 30.1035036,51.2835018 M32.9166667,51.2835018 C32.9166667,54.5007933 30.517823,56.9838212 27.595781,56.9838212 C26.0037698,56.9838212 24.8481893,56.4008495 24.0631631,55.4076383 L24.0631631,61 L21.25,61 L21.25,45.885615 L24.0631631,45.885615 L24.0631631,47.1595163 C24.8481893,46.1661541 26.0037698,45.5833333 27.595781,45.5833333 C30.517823,45.5833333 32.9166667,48.0663613 32.9166667,51.2835018 M34.0644378,56.4166667 L36.768749,56.4166667 L36.768749,45.6958166 L34.0644378,45.6958166 L34.0644378,56.4166667 Z M33.75,42.715312 C33.75,41.7933318 34.5046506,41 35.4061854,41 C36.3285361,41 37.0833333,41.7933318 37.0833333,42.715312 C37.0833333,43.6372922 36.3285361,44.4093326 35.4061854,44.4093326 C34.5046506,44.4093326 33.75,43.6372922 33.75,42.715312 L33.75,42.715312 Z M38.3333333,51.2082588 C38.3333333,48.033585 40.7142178,45.5833333 43.945418,45.5833333 C46.0288406,45.5833333 47.8357618,46.6912732 48.7073356,48.3318765 L46.3475604,49.7168013 C45.9225511,48.8432333 45.0083129,48.2892634 43.9243088,48.2892634 C42.2873021,48.2892634 41.075602,49.503736 41.075602,51.2082588 C41.075602,52.8914752 42.2873021,54.1060967 43.9243088,54.1060967 C45.0297194,54.1060967 45.9436603,53.5734333 46.3689669,52.6997164 L48.75,54.0634837 C47.8357618,55.7253935 46.0288406,56.8333333 43.945418,56.8333333 C40.7142178,56.8333333 38.3333333,54.3830817 38.3333333,51.2082588 M56.3296359,56.4166667 L52.3816648,51.5523283 L52.3816648,56.4166667 L49.5833333,56.4166667 L49.5833333,41.4166667 L52.3816648,41.4166667 L52.3816648,50.4166367 L56.1127228,45.7024452 L59.4531854,45.7024452 L55.0932309,50.9951966 L59.5833333,56.4166667 L56.3296359,56.4166667 Z M61.25,56.4166667 L64.1666667,56.4166667 L64.1666667,53.5 L61.25,53.5 L61.25,56.4166667 Z" id="Logo"></path>
            </g>
        </g>
    </g>
</svg>