<svg xmlns="http://www.w3.org/2000/svg" width="63" height="16" viewBox="0 0 63 16">
    <g fill="none" fill-rule="evenodd">
        <g fill="#0050FF" fill-rule="nonzero">
            <g>
                <g>
                    <g>
                        <path d="M21.524 3.974h2.018V1.612L26.278 0v3.974h2.861v2.455h-2.86v4.484c0 1.144.488 1.55 1.185 1.55.385 0 .687-.125 1.01-.406l1.269 2.174c-.708.52-1.592.822-2.601.822-2.279 0-3.61-1.092-3.61-4.057V6.42h-2.018V3.974h.01zm17.321 5.4c0-1.696-1.331-3.049-2.985-3.049-1.675 0-2.986 1.353-2.986 3.048 0 1.696 1.31 3.048 2.986 3.048 1.664 0 2.985-1.352 2.985-3.048zm-8.738.02c0-3.142 2.476-5.67 5.742-5.67 3.246 0 5.763 2.518 5.763 5.67 0 3.131-2.475 5.67-5.763 5.67-3.266 0-5.742-2.539-5.742-5.67zm12.078 2.965l2.684-1.05c.489.967 1.352 1.466 2.496 1.466 1.124 0 1.738-.54 1.738-1.186 0-.79-1.165-.967-2.56-1.248-1.83-.385-3.87-.947-3.87-3.246 0-1.831 1.77-3.433 4.453-3.412 2.3 0 3.672.863 4.671 2.32l-2.538 1.03c-.448-.729-1.134-1.155-2.133-1.155-1.092 0-1.612.447-1.612 1.05 0 .687.884.864 2.476 1.207 1.81.364 3.953.989 3.953 3.33 0 1.695-1.509 3.61-4.671 3.588-2.59.01-4.224-.957-5.087-2.694zm10.476 0l2.684-1.05c.489.967 1.352 1.466 2.496 1.466 1.134 0 1.738-.54 1.738-1.186 0-.79-1.165-.967-2.56-1.248-1.83-.385-3.87-.947-3.87-3.246 0-1.831 1.78-3.433 4.453-3.412 2.3 0 3.672.863 4.681 2.32l-2.538 1.03c-.447-.729-1.123-1.155-2.133-1.155-1.092 0-1.612.447-1.612 1.05 0 .687.884.864 2.476 1.207 1.81.364 3.953.989 3.953 3.33 0 1.695-1.508 3.61-4.681 3.588-2.59.01-4.224-.957-5.087-2.694zM17.935 8.458c0 1.997-.79 3.922-2.205 5.337C14.315 15.209 12.4 16 10.403 16c-3.027 0-5.638-1.779-6.835-4.359-1.269.354-2.476.926-3.568 1.675.375-2.101 1.155-4.598 2.414-6.876 1.56-2.82 3.911-5.244 7.48-5.483.447-.031.884-.02 1.331.02 3.766.375 6.71 3.59 6.71 7.48z" transform="translate(-66 -1405) translate(20 1207) translate(0 181) translate(46 17)"/>
                    </g>
                </g>
            </g>
        </g>
    </g>
</svg>
