<svg xmlns="http://www.w3.org/2000/svg" xmlns:xlink="http://www.w3.org/1999/xlink" width="51" height="20" viewBox="0 0 51 20">
    <defs>
        <path id="o0qq5ogvja" d="M0 0L7.926 0 7.926 12.253 0 12.253z"/>
        <path id="dnsteqqouc" d="M0 20L50.885 20 50.885 0 0 0z"/>
    </defs>
    <g fill="none" fill-rule="evenodd">
        <g>
            <g>
                <g>
                    <g>
                        <g transform="translate(-72 -1338) translate(20 1207) translate(0 116) translate(52 15)">
                            <path fill="#424242" d="M27.283 5.65v4.247h2.25c1.65 0 2.474-.681 2.474-2.044v-.286c0-.655-.198-1.138-.595-1.45-.395-.312-.964-.468-1.703-.468h-2.426zm-1.57-1.364h4.082c.643 0 1.202.082 1.677.245.475.164.867.392 1.179.682.31.29.542.637.696 1.038.152.402.228.835.228 1.3v.334c0 .464-.081.9-.244 1.306-.164.408-.403.764-.72 1.07-.316.308-.708.55-1.177.73-.47.18-1.015.27-1.637.27h-2.514v4.454h-1.57V4.285zM40.106 11.768h-2.172c-.602 0-1.032.116-1.291.348-.26.233-.388.555-.388.968v.222c0 .422.147.728.443.92.296.19.65.284 1.062.284.38 0 .71-.045.99-.135.28-.09.537-.224.77-.404.21-.159.362-.34.452-.547.09-.206.134-.473.134-.8v-.856zm-2.504 4.073c-.877 0-1.572-.217-2.085-.65-.512-.433-.768-1.03-.768-1.79v-.429c0-.74.248-1.342.745-1.806.496-.466 1.299-.698 2.409-.698h2.203V9.96c0-.58-.14-1.012-.42-1.29-.28-.28-.736-.422-1.371-.422-.507 0-.948.08-1.323.238-.376.158-.764.37-1.166.634l-.761-1.14c.423-.297.899-.553 1.427-.77.528-.216 1.142-.324 1.839-.324.485 0 .93.06 1.331.182.402.121.748.3 1.039.538.29.238.517.53.681.872.164.344.246.732.246 1.165v6.071h-1.474v-1.046h-.016c-.085.16-.198.304-.341.436-.143.132-.299.246-.467.342-.233.126-.484.224-.754.292-.27.07-.594.103-.974.103z"/>
                            <g transform="translate(42.96 7.044)">
                                <mask id="f9tbur0sib" fill="#fff">
                                    <use xlink:href="#o0qq5ogvja"/>
                                </mask>
                                <path fill="#424242" d="M4.026 6.927L6.309 0 7.926 0 3.424 12.253 2.029 11.762 3.154 8.798 0 0 1.665 0 3.963 6.927z" mask="url(#f9tbur0sib)"/>
                            </g>
                            <mask id="pqacq6g3od" fill="#fff">
                                <use xlink:href="#dnsteqqouc"/>
                            </mask>
                            <path fill="#00C73C" d="M0 20L19.999 20 19.999 0 0 0z" mask="url(#pqacq6g3od)"/>
                            <path fill="#FFF" d="M11.59 14.578L8.364 9.839 8.364 14.578 5 14.578 5 5.422 8.411 5.422 11.637 10.161 11.637 5.422 14.999 5.422 14.999 14.578z" mask="url(#pqacq6g3od)"/>
                        </g>
                    </g>
                </g>
            </g>
        </g>
    </g>
</svg>
