<svg width="48" height="48" viewBox="0 0 48 48" xmlns="http://www.w3.org/2000/svg">
    <g fill="none" fill-rule="evenodd">
        <path d="M0 0h48v48H0z"/>
        <path d="M46.5 24c0 12.426-10.074 22.5-22.5 22.5S1.5 36.426 1.5 24 11.574 1.5 24 1.5 46.5 11.574 46.5 24" fill="#FFEC00"/>
        <path d="M23.998 17.725c-.471.34-1.12.245-1.45-.21-.328-.457-.213-1.102.259-1.442.47-.34 1.119-.245 1.448.211.329.456.214 1.101-.257 1.441M18.019 16.276c-.471.34-1.12.245-1.45-.211-.328-.456-.213-1.101.259-1.441.47-.34 1.119-.245 1.448.21.329.457.214 1.102-.257 1.442" fill="#000"/>
        <path d="M46.5 24c0 12.426-10.074 22.5-22.5 22.5S1.5 36.426 1.5 24 11.574 1.5 24 1.5 46.5 11.574 46.5 24z" stroke="#000" stroke-width="1.348" stroke-linecap="round" stroke-linejoin="round"/>
        <path d="m22.86 13.624.404.76a5.87 5.87 0 0 1 4.31-.42M16.063 6.91c1.029.416 1.895 1.176 2.547 2.072.652.896 1.1 1.926 1.44 2.982" stroke="#000" stroke-width="1.011" stroke-linecap="round" stroke-linejoin="round"/>
        <path d="M22.2 21.344c1.65.272 3.88-.492 5.298-1.262M28.852 17.21c-.462.88-.909 1.795-1.013 2.783-.104.988.198 2.075.995 2.668.048.035.103.088.08.143-.023.055-.123-.029-.064-.039" stroke="#000" stroke-width="1.163" stroke-linecap="round" stroke-linejoin="round"/>
    </g>
</svg>
