<svg width="48" height="48" viewBox="0 0 48 48" xmlns="http://www.w3.org/2000/svg">
    <g fill="none" fill-rule="evenodd">
        <path d="M0 0h48v48H0z"/>
        <path d="M46.5 24c0 12.426-10.074 22.5-22.5 22.5S1.5 36.426 1.5 24 11.574 1.5 24 1.5 46.5 11.574 46.5 24" fill="#CECECE"/>
        <path d="M29.007 19.278c-.378.441-1.03.502-1.458.136-.427-.366-.467-1.02-.089-1.461.378-.441 1.03-.502 1.457-.136.428.366.468 1.02.09 1.461M20.313 19.48c-.378.44-1.03.502-1.458.136-.427-.366-.467-1.02-.089-1.461.378-.441 1.03-.502 1.457-.136.428.366.468 1.02.09 1.46" fill="#000"/>
        <path d="M46.5 24c0 12.426-10.074 22.5-22.5 22.5S1.5 36.426 1.5 24 11.574 1.5 24 1.5 46.5 11.574 46.5 24z" stroke="#000" stroke-width="1.348" stroke-linecap="round" stroke-linejoin="round"/>
        <path d="M18.16 10.955c1.572.446 2.445 1.311 3.069 2.354M26.274 9.952l.505.792a6.408 6.408 0 0 1 4.658-.827M21.076 22.152c2.06-1.134 4.268-.937 6.199.45" stroke="#000" stroke-width="1.011" stroke-linecap="round" stroke-linejoin="round"/>
        <path d="M18.248 19.455c-.413.212-.194.942.305.998 0 0-.274 1.191-.828 2.798-.555 1.607-1.477 7.335.61 8.258 1.44.638 2.273-.277 2.162-1.552-.111-1.274-1.611-2.632-.558-9.338 0 0 1.29-.139.904-.81-.332-.575-.695.061-1.541-.049-.637-.083-.555-.56-1.053-.305M29.582 19.183c.413.212.194.942-.305.998 0 0 .274 1.19.828 2.798.555 1.607 1.478 7.335-.609 8.258-1.44.638-2.273-.277-2.162-1.552.111-1.274 1.611-2.632.558-9.338 0 0-1.29-.14-.904-.81.332-.575.694.06 1.541-.05.637-.082.554-.56 1.053-.304" fill="#FFF"/>
    </g>
</svg>
