<svg width="48" height="48" viewBox="0 0 48 48" xmlns="http://www.w3.org/2000/svg">
    <g fill="none" fill-rule="evenodd">
        <path d="M0 0h48v48H0z"/>
        <path d="M46.5 24c0 12.426-10.074 22.5-22.5 22.5S1.5 36.426 1.5 24 11.574 1.5 24 1.5 46.5 11.574 46.5 24" fill="#FFEC00"/>
        <path d="M46.5 24c0 12.426-10.074 22.5-22.5 22.5S1.5 36.426 1.5 24 11.574 1.5 24 1.5 46.5 11.574 46.5 24z" stroke="#000" stroke-width="1.348" stroke-linecap="round" stroke-linejoin="round"/>
        <path d="M21.343 22.018c1.081.038 2.163.027 3.243-.033M31.991 21.645c1.183-.026 1.363-.051 2.547-.077M21.8 17.276a5.52 5.52 0 0 1 3.43 2.027M30.263 20.394a6.187 6.187 0 0 1 3.584-3.528M23.29 25.808c.015.655.774 1.174 1.389.95.577-.209.947-.912 1.56-.914.73 0 1.303 1.026 1.977.743.204-.085.34-.274.508-.418a1.366 1.366 0 0 1 1.662-.05c.144.11.27.251.443.306.247.078.51-.045.73-.18.222-.134.452-.29.71-.286.26.006.524.274.413.508" stroke="#000" stroke-width=".928" stroke-linecap="round" stroke-linejoin="round"/>
    </g>
</svg>
