<svg width="48" height="48" viewBox="0 0 48 48" xmlns="http://www.w3.org/2000/svg">
    <g fill="none" fill-rule="evenodd">
        <path d="M0 0h48v48H0z"/>
        <path d="M46.5 24c0 12.426-10.074 22.5-22.5 22.5S1.5 36.426 1.5 24 11.574 1.5 24 1.5 46.5 11.574 46.5 24" fill="#CECECE"/>
        <path d="M27.983 20.646c-.355.46-1.003.555-1.449.21-.445-.342-.519-.994-.164-1.454.354-.46 1.003-.554 1.448-.211.446.344.52.995.165 1.455" fill="#000"/>
        <path d="M27.983 20.646c.773-1.094-.752-2.284-1.592-1.227-.808 1.082.731 2.253 1.592 1.227m0 0c-.86 1.142-2.482-.141-1.634-1.26.866-1.104 2.52.136 1.634 1.26M20.447 20.646c-.355.46-1.003.555-1.45.21-.444-.342-.518-.994-.163-1.454.354-.46 1.003-.554 1.448-.211.446.344.52.995.165 1.455" fill="#000"/>
        <path d="M20.447 20.646c.773-1.094-.752-2.284-1.592-1.227-.808 1.082.73 2.253 1.592 1.227m0 0c-.861 1.142-2.482-.141-1.634-1.26.866-1.104 2.519.136 1.634 1.26" fill="#000"/>
        <path d="M46.5 24c0 12.426-10.074 22.5-22.5 22.5S1.5 36.426 1.5 24 11.574 1.5 24 1.5 46.5 11.574 46.5 24z" stroke="#000" stroke-width="1.348" stroke-linecap="round" stroke-linejoin="round"/>
        <path d="M27.675 23.288c.705.436.678.993.436 1.745-.492-.139-1.076-.12-1.615-.028-.947.15-1.8.613-2.71.92-.9.305-1.968.454-2.794 0-.826-.456-1.095-1.848-.306-2.349.566-.362 1.318-.047 1.995.028a6.864 6.864 0 0 0 2.609-.177c.789-.213 1.698-.557 2.385-.139" fill="#FFF"/>
        <path d="M28.111 25.033c-.492-.139-1.077-.12-1.615-.028-.947.15-1.8.613-2.71.92-.9.305-1.968.454-2.794 0-.826-.456-1.095-1.848-.306-2.349.566-.362 1.318-.047 1.995.028a6.858 6.858 0 0 0 2.608-.177c.79-.213 1.7-.557 2.386-.139.705.436.677.993.436 1.745zM28.111 25.033v.009M27.721 27.586c.807-.111 1.68-.965 1.244-1.875-.167-.353-.483-.566-.854-.668" stroke="#000" stroke-width=".972" stroke-linecap="round" stroke-linejoin="round"/>
        <path d="M17.156 10.448a9.731 9.731 0 0 1 4.71 4.303M24.62 16.955l.87.595a8.638 8.638 0 0 1 4.224-1.942" stroke="#000" stroke-width=".928" stroke-linecap="round" stroke-linejoin="round"/>
    </g>
</svg>
