<svg width="48" height="48" viewBox="0 0 48 48" xmlns="http://www.w3.org/2000/svg">
    <g fill="none" fill-rule="evenodd">
        <path d="M0 0h48v48H0z"/>
        <path d="M46.5 24c0 12.426-10.074 22.5-22.5 22.5S1.5 36.426 1.5 24 11.574 1.5 24 1.5 46.5 11.574 46.5 24" fill="#FFEC00"/>
        <path d="M25.021 17.01c-.355.46-1.003.555-1.449.21-.445-.342-.519-.994-.164-1.454.354-.46 1.003-.554 1.448-.211.446.344.52.995.165 1.455" fill="#000"/>
        <path d="M25.021 17.01c.773-1.094-.752-2.284-1.592-1.227-.808 1.082.731 2.253 1.592 1.227m0 0c-.86 1.142-2.482-.141-1.634-1.26.866-1.104 2.52.136 1.634 1.26M16.349 17.658c-.355.46-1.003.555-1.449.211-.445-.343-.519-.995-.164-1.455.354-.46 1.003-.554 1.448-.21.446.343.52.994.165 1.454" fill="#000"/>
        <path d="M16.349 17.658c.773-1.094-.752-2.284-1.592-1.227-.808 1.082.731 2.253 1.592 1.227m0 0c-.861 1.142-2.482-.142-1.634-1.26.866-1.104 2.519.136 1.634 1.26" fill="#000"/>
        <path d="M46.5 24c0 12.426-10.074 22.5-22.5 22.5S1.5 36.426 1.5 24 11.574 1.5 24 1.5 46.5 11.574 46.5 24z" stroke="#000" stroke-width="1.348" stroke-linecap="round" stroke-linejoin="round"/>
        <path d="M13.76 12.44c1.593.363 2.51 1.183 3.186 2.192M22.05 10.52a10.86 10.86 0 0 1 4.426-4.006M17.86 20.697a36.437 36.437 0 0 1 4.313-.357" stroke="#000" stroke-width="1.011" stroke-linecap="round" stroke-linejoin="round"/>
    </g>
</svg>
