<svg width="48" height="48" viewBox="0 0 48 48" xmlns="http://www.w3.org/2000/svg">
    <g fill="none" fill-rule="evenodd">
        <path d="M0 0h48v48H0z"/>
        <path d="M46.5 24c0 12.426-10.074 22.5-22.5 22.5S1.5 36.426 1.5 24 11.574 1.5 24 1.5 46.5 11.574 46.5 24" fill="#FFEC00"/>
        <path d="M29.093 22.746c-.355.46-1.003.555-1.45.21-.445-.342-.518-.994-.163-1.454.354-.46 1.003-.554 1.447-.211.447.344.52.995.166 1.455M20.74 23.122c-.356.46-1.004.555-1.45.21-.445-.343-.519-.995-.164-1.454.354-.46 1.003-.555 1.448-.212.446.345.52.995.165 1.456" fill="#000"/>
        <path d="M46.5 24c0 12.426-10.074 22.5-22.5 22.5S1.5 36.426 1.5 24 11.574 1.5 24 1.5 46.5 11.574 46.5 24z" stroke="#000" stroke-width="1.348" stroke-linecap="round" stroke-linejoin="round"/>
        <path d="M16.267 15.788a4.74 4.74 0 0 1 3.765 1.349M24.702 13.232A11.345 11.345 0 0 1 29.42 8.45" stroke="#000" stroke-width="1.011" stroke-linecap="round" stroke-linejoin="round"/>
        <path d="M26.508 32.252c.04 1.48.01 2.96-.08 4.44-.05.71-.4 2.18-1.31 2.28-.9.1-1.38-1.22-1.57-1.9-.43-1.57-.55-3.19-.55-4.83.97-.78 2.47-.41 3.51.01" fill="#FBA1FF"/>
        <path d="M26.448 30.492c.04.58.06 1.17.06 1.76-1.04-.42-2.54-.79-3.51-.01 0-1.22.07-2.46.13-3.67.04-.73.09-1.49.35-2.12.46-1.09 1.38-1.22 2.06-.23.79 1.14.84 2.94.91 4.27" fill="#000"/>
        <path d="M26.508 32.252c0-.59-.02-1.18-.06-1.76-.07-1.33-.12-3.13-.91-4.27-.68-.99-1.6-.86-2.06.23-.26.63-.31 1.39-.35 2.12-.06 1.21-.13 2.45-.13 3.67 0 1.64.12 3.26.55 4.83.19.68.67 2 1.57 1.9.91-.1 1.26-1.57 1.31-2.28.09-1.48.12-2.96.08-4.44z" stroke="#000" stroke-width="1.011" stroke-linecap="round" stroke-linejoin="round"/>
        <path d="M22.997 32.244c.977-.78 2.49-.408 3.53.021" stroke="#000" stroke-width="1.011" stroke-linecap="round" stroke-linejoin="round"/>
    </g>
</svg>
