<?xml version="1.0" encoding="UTF-8"?>
<svg width="63px" height="20px" viewBox="0 0 63 20" version="1.1" xmlns="http://www.w3.org/2000/svg" xmlns:xlink="http://www.w3.org/1999/xlink">
    <title>Combined Shape</title>
    <g id="Symbols" stroke="none" stroke-width="1" fill="none" fill-rule="evenodd">
        <g id="Group-5" transform="translate(-20.000000, -20.000000)" fill="#000000">
            <path d="M39.577,25.022 C43.573,25.022 46.408,28.181 46.408,32.15 C46.408,32.663 46.354,33.122 46.273,33.581 L46.273,33.581 L36.094,33.581 C36.58,35.363 38.065,36.119 39.901,36.119 C41.251,36.119 42.331,35.552 42.925,34.769 L42.925,34.769 L45.733,36.389 C44.464,38.225 42.439,39.278 39.847,39.278 C35.311,39.278 32.449,36.173 32.449,32.15 C32.449,28.127 35.338,25.022 39.577,25.022 Z M54.456,25.022 C58.452,25.022 61.287,28.181 61.287,32.15 C61.287,32.663 61.233,33.122 61.152,33.581 L61.152,33.581 L50.973,33.581 C51.459,35.363 52.944,36.119 54.78,36.119 C56.13,36.119 57.21,35.552 57.804,34.769 L57.804,34.769 L60.612,36.389 C59.343,38.225 57.318,39.278 54.726,39.278 C50.19,39.278 47.328,36.173 47.328,32.15 C47.328,28.127 50.217,25.022 54.456,25.022 Z M76.625,20 L76.625,38.9 L73.142,38.9 L73.142,37.307 C72.17,38.549 70.739,39.278 68.768,39.278 C65.15,39.278 62.18,36.173 62.18,32.15 C62.18,28.127 65.15,25.022 68.768,25.022 C70.739,25.022 72.17,25.751 73.142,26.993 L73.142,26.993 L73.142,20 L76.625,20 Z M82.3558333,35.265 L82.3558333,38.9108333 L78.71,38.9108333 L78.71,35.265 L82.3558333,35.265 Z M31.286,20 L31.286,23.564 L23.726,23.564 L23.726,28.046 L31.07,28.046 L31.07,31.61 L23.726,31.61 L23.726,38.9 L20,38.9 L20,20 L31.286,20 Z M69.416,28.343 C67.256,28.343 65.663,29.882 65.663,32.15 C65.663,34.418 67.256,35.957 69.416,35.957 C71.549,35.957 73.142,34.418 73.142,32.15 C73.142,29.882 71.549,28.343 69.416,28.343 Z M39.577,28.154 C37.714,28.154 36.445,29.153 36.04,30.881 L36.04,30.881 L42.925,30.881 C42.493,28.937 41.035,28.154 39.577,28.154 Z M54.456,28.154 C52.593,28.154 51.324,29.153 50.919,30.881 L50.919,30.881 L57.804,30.881 C57.372,28.937 55.914,28.154 54.456,28.154 Z" id="Combined-Shape"></path>
        </g>
    </g>
</svg>